<?xml version="1.0" encoding="UTF-8" standalone="no"?>
<!DOCTYPE svg PUBLIC "-//W3C//DTD SVG 1.1//EN"
 "http://www.w3.org/Graphics/SVG/1.1/DTD/svg11.dtd">
<!-- Generated by graphviz version 2.43.0 (0)
 -->
<!-- Title: sourcetree Pages: 1 -->
<svg width="621pt" height="260pt"
 viewBox="0.00 0.00 621.00 260.00" xmlns="http://www.w3.org/2000/svg" xmlns:xlink="http://www.w3.org/1999/xlink">
<g id="graph0" class="graph" transform="scale(1 1) rotate(0) translate(4 256)">
<title>sourcetree</title>
<polygon fill="white" stroke="transparent" points="-4,4 -4,-256 617,-256 617,4 -4,4"/>
<!-- mulle&#45;objc&#45;runtime -->
<g id="node1" class="node">
<title>mulle&#45;objc&#45;runtime</title>
<polygon fill="yellow" stroke="black" points="397,-252 245,-252 245,-216 397,-216 397,-252"/>
<text text-anchor="middle" x="321" y="-230.3" font-family="Times,serif" font-size="14.00">mulle&#45;objc&#45;runtime</text>
</g>
<!-- mulle&#45;atinit -->
<g id="node5" class="node">
<title>mulle&#45;atinit</title>
<polygon fill="lightgrey" stroke="black" points="99.5,-180 0.5,-180 0.5,-144 99.5,-144 99.5,-180"/>
<text text-anchor="middle" x="50" y="-158.3" font-family="Times,serif" font-size="14.00">mulle&#45;atinit</text>
</g>
<!-- mulle&#45;objc&#45;runtime&#45;&gt;mulle&#45;atinit -->
<g id="edge8" class="edge">
<title>mulle&#45;objc&#45;runtime&#45;&gt;mulle&#45;atinit</title>
<path fill="none" stroke="black" d="M249.32,-215.95C210.34,-206.49 161.07,-194.24 109.32,-180.31"/>
<polygon fill="black" stroke="black" points="110.2,-176.93 99.64,-177.69 108.38,-183.68 110.2,-176.93"/>
</g>
<!-- mulle&#45;concurrent -->
<g id="node7" class="node">
<title>mulle&#45;concurrent</title>
<polygon fill="lightgrey" stroke="black" points="256.5,-180 117.5,-180 117.5,-144 256.5,-144 256.5,-180"/>
<text text-anchor="middle" x="187" y="-158.3" font-family="Times,serif" font-size="14.00">mulle&#45;concurrent</text>
</g>
<!-- mulle&#45;objc&#45;runtime&#45;&gt;mulle&#45;concurrent -->
<g id="edge9" class="edge">
<title>mulle&#45;objc&#45;runtime&#45;&gt;mulle&#45;concurrent</title>
<path fill="none" stroke="black" d="M288.22,-215.88C270.37,-206.55 248.1,-194.92 229,-184.94"/>
<polygon fill="black" stroke="black" points="230.39,-181.72 219.91,-180.19 227.15,-187.92 230.39,-181.72"/>
</g>
<!-- mulle&#45;data -->
<g id="node8" class="node">
<title>mulle&#45;data</title>
<polygon fill="lightgrey" stroke="black" points="367,-180 275,-180 275,-144 367,-144 367,-180"/>
<text text-anchor="middle" x="321" y="-158.3" font-family="Times,serif" font-size="14.00">mulle&#45;data</text>
</g>
<!-- mulle&#45;objc&#45;runtime&#45;&gt;mulle&#45;data -->
<g id="edge10" class="edge">
<title>mulle&#45;objc&#45;runtime&#45;&gt;mulle&#45;data</title>
<path fill="none" stroke="black" d="M321,-215.7C321,-207.98 321,-198.71 321,-190.11"/>
<polygon fill="black" stroke="black" points="324.5,-190.1 321,-180.1 317.5,-190.1 324.5,-190.1"/>
</g>
<!-- mulle&#45;atexit -->
<g id="node11" class="node">
<title>mulle&#45;atexit</title>
<polygon fill="lightgrey" stroke="black" points="487,-180 385,-180 385,-144 487,-144 487,-180"/>
<text text-anchor="middle" x="436" y="-158.3" font-family="Times,serif" font-size="14.00">mulle&#45;atexit</text>
</g>
<!-- mulle&#45;objc&#45;runtime&#45;&gt;mulle&#45;atexit -->
<g id="edge7" class="edge">
<title>mulle&#45;objc&#45;runtime&#45;&gt;mulle&#45;atexit</title>
<path fill="none" stroke="black" d="M349.13,-215.88C364.17,-206.72 382.87,-195.34 399.06,-185.48"/>
<polygon fill="black" stroke="black" points="401.04,-188.38 407.76,-180.19 397.4,-182.4 401.04,-188.38"/>
</g>
<!-- mulle&#45;vararg -->
<g id="node12" class="node">
<title>mulle&#45;vararg</title>
<polygon fill="lightgrey" stroke="black" points="613,-180 505,-180 505,-144 613,-144 613,-180"/>
<text text-anchor="middle" x="559" y="-158.3" font-family="Times,serif" font-size="14.00">mulle&#45;vararg</text>
</g>
<!-- mulle&#45;objc&#45;runtime&#45;&gt;mulle&#45;vararg -->
<g id="edge11" class="edge">
<title>mulle&#45;objc&#45;runtime&#45;&gt;mulle&#45;vararg</title>
<path fill="none" stroke="black" d="M378.92,-215.97C414.01,-205.65 458.82,-192.47 494.96,-181.83"/>
<polygon fill="black" stroke="black" points="496.3,-185.09 504.91,-178.91 494.33,-178.37 496.3,-185.09"/>
</g>
<!-- mulle&#45;aba -->
<g id="node2" class="node">
<title>mulle&#45;aba</title>
<polygon fill="lightgrey" stroke="black" points="230,-108 144,-108 144,-72 230,-72 230,-108"/>
<text text-anchor="middle" x="187" y="-86.3" font-family="Times,serif" font-size="14.00">mulle&#45;aba</text>
</g>
<!-- mulle&#45;allocator -->
<g id="node3" class="node">
<title>mulle&#45;allocator</title>
<polygon fill="lightgrey" stroke="black" points="245.5,-36 122.5,-36 122.5,0 245.5,0 245.5,-36"/>
<text text-anchor="middle" x="184" y="-14.3" font-family="Times,serif" font-size="14.00">mulle&#45;allocator</text>
</g>
<!-- mulle&#45;aba&#45;&gt;mulle&#45;allocator -->
<g id="edge1" class="edge">
<title>mulle&#45;aba&#45;&gt;mulle&#45;allocator</title>
<path fill="none" stroke="black" d="M186.26,-71.7C185.93,-63.98 185.53,-54.71 185.16,-46.11"/>
<polygon fill="black" stroke="black" points="188.66,-45.95 184.73,-36.1 181.66,-46.25 188.66,-45.95"/>
</g>
<!-- mulle&#45;thread -->
<g id="node4" class="node">
<title>mulle&#45;thread</title>
<polygon fill="lightgrey" stroke="black" points="372,-36 264,-36 264,0 372,0 372,-36"/>
<text text-anchor="middle" x="318" y="-14.3" font-family="Times,serif" font-size="14.00">mulle&#45;thread</text>
</g>
<!-- mulle&#45;aba&#45;&gt;mulle&#45;thread -->
<g id="edge2" class="edge">
<title>mulle&#45;aba&#45;&gt;mulle&#45;thread</title>
<path fill="none" stroke="black" d="M219.05,-71.88C236.49,-62.55 258.27,-50.92 276.94,-40.94"/>
<polygon fill="black" stroke="black" points="278.66,-43.99 285.83,-36.19 275.36,-37.82 278.66,-43.99"/>
</g>
<!-- mulle&#45;dlfcn -->
<g id="node6" class="node">
<title>mulle&#45;dlfcn</title>
<polygon fill="lightgrey" stroke="black" points="98,-108 2,-108 2,-72 98,-72 98,-108"/>
<text text-anchor="middle" x="50" y="-86.3" font-family="Times,serif" font-size="14.00">mulle&#45;dlfcn</text>
</g>
<!-- mulle&#45;atinit&#45;&gt;mulle&#45;dlfcn -->
<g id="edge3" class="edge">
<title>mulle&#45;atinit&#45;&gt;mulle&#45;dlfcn</title>
<path fill="none" stroke="black" d="M50,-143.7C50,-135.98 50,-126.71 50,-118.11"/>
<polygon fill="black" stroke="black" points="53.5,-118.1 50,-108.1 46.5,-118.1 53.5,-118.1"/>
</g>
<!-- dlfcn&#45;win32 -->
<g id="node10" class="node">
<title>dlfcn&#45;win32</title>
<polygon fill="lightgrey" stroke="black" points="100,-36 0,-36 0,0 100,0 100,-36"/>
<text text-anchor="middle" x="50" y="-14.3" font-family="Times,serif" font-size="14.00">dlfcn&#45;win32</text>
</g>
<!-- mulle&#45;dlfcn&#45;&gt;dlfcn&#45;win32 -->
<g id="edge6" class="edge">
<title>mulle&#45;dlfcn&#45;&gt;dlfcn&#45;win32</title>
<path fill="none" stroke="black" d="M50,-71.7C50,-63.98 50,-54.71 50,-46.11"/>
<polygon fill="black" stroke="black" points="53.5,-46.1 50,-36.1 46.5,-46.1 53.5,-46.1"/>
</g>
<!-- mulle&#45;concurrent&#45;&gt;mulle&#45;aba -->
<g id="edge4" class="edge">
<title>mulle&#45;concurrent&#45;&gt;mulle&#45;aba</title>
<path fill="none" stroke="black" d="M187,-143.7C187,-135.98 187,-126.71 187,-118.11"/>
<polygon fill="black" stroke="black" points="190.5,-118.1 187,-108.1 183.5,-118.1 190.5,-118.1"/>
</g>
<!-- src/farmhash -->
<g id="node9" class="node">
<title>src/farmhash</title>
<polygon fill="lightgrey" stroke="black" points="376,-108 266,-108 266,-72 376,-72 376,-108"/>
<text text-anchor="middle" x="321" y="-86.3" font-family="Times,serif" font-size="14.00">src/farmhash</text>
</g>
<!-- mulle&#45;data&#45;&gt;src/farmhash -->
<g id="edge5" class="edge">
<title>mulle&#45;data&#45;&gt;src/farmhash</title>
<path fill="none" stroke="black" d="M321,-143.7C321,-135.98 321,-126.71 321,-118.11"/>
<polygon fill="black" stroke="black" points="324.5,-118.1 321,-108.1 317.5,-118.1 324.5,-118.1"/>
</g>
</g>
</svg>
