<?xml version="1.0" encoding="UTF-8" standalone="no"?>
<!DOCTYPE svg PUBLIC "-//W3C//DTD SVG 1.1//EN"
 "http://www.w3.org/Graphics/SVG/1.1/DTD/svg11.dtd">
<!-- Generated by graphviz version 2.43.0 (0)
 -->
<!-- Title: sourcetree Pages: 1 -->
<svg width="3179pt" height="188pt"
 viewBox="0.00 0.00 3178.50 188.00" xmlns="http://www.w3.org/2000/svg" xmlns:xlink="http://www.w3.org/1999/xlink">
<g id="graph0" class="graph" transform="scale(1 1) rotate(0) translate(4 184)">
<title>sourcetree</title>
<polygon fill="white" stroke="transparent" points="-4,4 -4,-184 3174.5,-184 3174.5,4 -4,4"/>
<!-- mulle&#45;objc&#45;runtime -->
<g id="node1" class="node">
<title>mulle&#45;objc&#45;runtime</title>
<polygon fill="yellow" stroke="black" points="1529.5,-180 1377.5,-180 1377.5,-144 1529.5,-144 1529.5,-180"/>
<text text-anchor="middle" x="1453.5" y="-158.3" font-family="Times,serif" font-size="14.00">mulle&#45;objc&#45;runtime</text>
</g>
<!-- mulle&#45;atexit -->
<g id="node5" class="node">
<title>mulle&#45;atexit</title>
<g id="a_node5"><a xlink:href="https://github.com/mulle-core/mulle-atexit" xlink:title="mulle&#45;atexit">
<polygon fill="lightgrey" stroke="black" points="1385.5,-108 1283.5,-108 1283.5,-72 1385.5,-72 1385.5,-108"/>
<text text-anchor="middle" x="1334.5" y="-86.3" font-family="Times,serif" font-size="14.00">mulle&#45;atexit</text>
</a>
</g>
</g>
<!-- mulle&#45;objc&#45;runtime&#45;&gt;mulle&#45;atexit -->
<g id="edge27" class="edge">
<title>mulle&#45;objc&#45;runtime&#45;&gt;mulle&#45;atexit</title>
<path fill="none" stroke="black" d="M1424.39,-143.88C1408.83,-134.72 1389.48,-123.34 1372.72,-113.48"/>
<polygon fill="black" stroke="black" points="1374.12,-110.24 1363.72,-108.19 1370.57,-116.28 1374.12,-110.24"/>
</g>
<!-- mulle&#45;atinit -->
<g id="node6" class="node">
<title>mulle&#45;atinit</title>
<g id="a_node6"><a xlink:href="https://github.com/mulle-core/mulle-atinit" xlink:title="mulle&#45;atinit">
<polygon fill="lightgrey" stroke="black" points="1503,-108 1404,-108 1404,-72 1503,-72 1503,-108"/>
<text text-anchor="middle" x="1453.5" y="-86.3" font-family="Times,serif" font-size="14.00">mulle&#45;atinit</text>
</a>
</g>
</g>
<!-- mulle&#45;objc&#45;runtime&#45;&gt;mulle&#45;atinit -->
<g id="edge28" class="edge">
<title>mulle&#45;objc&#45;runtime&#45;&gt;mulle&#45;atinit</title>
<path fill="none" stroke="black" d="M1453.5,-143.7C1453.5,-135.98 1453.5,-126.71 1453.5,-118.11"/>
<polygon fill="black" stroke="black" points="1457,-118.1 1453.5,-108.1 1450,-118.1 1457,-118.1"/>
</g>
<!-- mulle&#45;core -->
<g id="node11" class="node">
<title>mulle&#45;core</title>
<g id="a_node11"><a xlink:href="https://github.com/mulle-core/mulle-core" xlink:title="mulle&#45;core">
<polygon fill="lightgrey" stroke="black" points="1613.5,-108 1521.5,-108 1521.5,-72 1613.5,-72 1613.5,-108"/>
<text text-anchor="middle" x="1567.5" y="-86.3" font-family="Times,serif" font-size="14.00">mulle&#45;core</text>
</a>
</g>
</g>
<!-- mulle&#45;objc&#45;runtime&#45;&gt;mulle&#45;core -->
<g id="edge29" class="edge">
<title>mulle&#45;objc&#45;runtime&#45;&gt;mulle&#45;core</title>
<path fill="none" stroke="black" d="M1481.39,-143.88C1496.29,-134.72 1514.83,-123.34 1530.88,-113.48"/>
<polygon fill="black" stroke="black" points="1532.81,-116.41 1539.51,-108.19 1529.15,-110.44 1532.81,-116.41"/>
</g>
<!-- mintomic -->
<g id="node2" class="node">
<title>mintomic</title>
<g id="a_node2"><a xlink:href="https://github.com/mulle-concurrent/mintomic" xlink:title="mintomic">
<polygon fill="lightgrey" stroke="black" points="83,-36 0,-36 0,0 83,0 83,-36"/>
<text text-anchor="middle" x="41.5" y="-14.3" font-family="Times,serif" font-size="14.00">mintomic</text>
</a>
</g>
</g>
<!-- mulle&#45;aba -->
<g id="node3" class="node">
<title>mulle&#45;aba</title>
<g id="a_node3"><a xlink:href="https://github.com/mulle-concurrent/mulle-aba@*" xlink:title="mulle&#45;aba">
<polygon fill="lightgrey" stroke="black" points="187.5,-36 101.5,-36 101.5,0 187.5,0 187.5,-36"/>
<text text-anchor="middle" x="144.5" y="-14.3" font-family="Times,serif" font-size="14.00">mulle&#45;aba</text>
</a>
</g>
</g>
<!-- mulle&#45;allocator -->
<g id="node4" class="node">
<title>mulle&#45;allocator</title>
<g id="a_node4"><a xlink:href="https://github.com/mulle-c/mulle-allocator@*" xlink:title="mulle&#45;allocator">
<polygon fill="lightgrey" stroke="black" points="329,-36 206,-36 206,0 329,0 329,-36"/>
<text text-anchor="middle" x="267.5" y="-14.3" font-family="Times,serif" font-size="14.00">mulle&#45;allocator</text>
</a>
</g>
</g>
<!-- mulle&#45;buffer -->
<g id="node7" class="node">
<title>mulle&#45;buffer</title>
<g id="a_node7"><a xlink:href="https://github.com/mulle-c/mulle-buffer@*" xlink:title="mulle&#45;buffer">
<polygon fill="lightgrey" stroke="black" points="451.5,-36 347.5,-36 347.5,0 451.5,0 451.5,-36"/>
<text text-anchor="middle" x="399.5" y="-14.3" font-family="Times,serif" font-size="14.00">mulle&#45;buffer</text>
</a>
</g>
</g>
<!-- mulle&#45;c11 -->
<g id="node8" class="node">
<title>mulle&#45;c11</title>
<g id="a_node8"><a xlink:href="https://github.com/mulle-c/mulle-c11@*" xlink:title="mulle&#45;c11">
<polygon fill="lightgrey" stroke="black" points="555.5,-36 469.5,-36 469.5,0 555.5,0 555.5,-36"/>
<text text-anchor="middle" x="512.5" y="-14.3" font-family="Times,serif" font-size="14.00">mulle&#45;c11</text>
</a>
</g>
</g>
<!-- mulle&#45;concurrent -->
<g id="node9" class="node">
<title>mulle&#45;concurrent</title>
<g id="a_node9"><a xlink:href="https://github.com/mulle-concurrent/mulle-concurrent@*" xlink:title="mulle&#45;concurrent">
<polygon fill="lightgrey" stroke="black" points="713,-36 574,-36 574,0 713,0 713,-36"/>
<text text-anchor="middle" x="643.5" y="-14.3" font-family="Times,serif" font-size="14.00">mulle&#45;concurrent</text>
</a>
</g>
</g>
<!-- mulle&#45;container -->
<g id="node10" class="node">
<title>mulle&#45;container</title>
<g id="a_node10"><a xlink:href="https://github.com/mulle-c/mulle-container@*" xlink:title="mulle&#45;container">
<polygon fill="lightgrey" stroke="black" points="859.5,-36 731.5,-36 731.5,0 859.5,0 859.5,-36"/>
<text text-anchor="middle" x="795.5" y="-14.3" font-family="Times,serif" font-size="14.00">mulle&#45;container</text>
</a>
</g>
</g>
<!-- mulle&#45;core&#45;&gt;mintomic -->
<g id="edge1" class="edge">
<title>mulle&#45;core&#45;&gt;mintomic</title>
<path fill="none" stroke="black" d="M1521.28,-73.92C1517.99,-73.17 1514.71,-72.52 1511.5,-72 1203.29,-22.25 419.49,-89.07 93.26,-35.71"/>
<polygon fill="black" stroke="black" points="93.72,-32.24 83.27,-34.01 92.54,-39.14 93.72,-32.24"/>
</g>
<!-- mulle&#45;core&#45;&gt;mulle&#45;aba -->
<g id="edge2" class="edge">
<title>mulle&#45;core&#45;&gt;mulle&#45;aba</title>
<path fill="none" stroke="black" d="M1521.28,-73.93C1517.99,-73.18 1514.71,-72.52 1511.5,-72 937.78,21.2 774.48,-134.04 197.91,-35.91"/>
<polygon fill="black" stroke="black" points="198.12,-32.39 187.67,-34.15 196.94,-39.29 198.12,-32.39"/>
</g>
<!-- mulle&#45;core&#45;&gt;mulle&#45;allocator -->
<g id="edge3" class="edge">
<title>mulle&#45;core&#45;&gt;mulle&#45;allocator</title>
<path fill="none" stroke="black" d="M1521.28,-73.94C1517.99,-73.19 1514.71,-72.53 1511.5,-72 1000.08,11.95 857.29,-103.6 339.29,-35.91"/>
<polygon fill="black" stroke="black" points="339.69,-32.43 329.32,-34.59 338.77,-39.37 339.69,-32.43"/>
</g>
<!-- mulle&#45;core&#45;&gt;mulle&#45;buffer -->
<g id="edge4" class="edge">
<title>mulle&#45;core&#45;&gt;mulle&#45;buffer</title>
<path fill="none" stroke="black" d="M1521.27,-73.95C1517.99,-73.2 1514.71,-72.53 1511.5,-72 1053.69,3.99 924.25,-105.67 461.51,-35.91"/>
<polygon fill="black" stroke="black" points="461.98,-32.44 451.57,-34.39 460.92,-39.36 461.98,-32.44"/>
</g>
<!-- mulle&#45;core&#45;&gt;mulle&#45;c11 -->
<g id="edge5" class="edge">
<title>mulle&#45;core&#45;&gt;mulle&#45;c11</title>
<path fill="none" stroke="black" d="M1521.27,-73.97C1517.99,-73.21 1514.71,-72.54 1511.5,-72 1099.37,-2.8 980.96,-108.48 565.55,-35.86"/>
<polygon fill="black" stroke="black" points="566.14,-32.41 555.68,-34.11 564.92,-39.3 566.14,-32.41"/>
</g>
<!-- mulle&#45;core&#45;&gt;mulle&#45;concurrent -->
<g id="edge6" class="edge">
<title>mulle&#45;core&#45;&gt;mulle&#45;concurrent</title>
<path fill="none" stroke="black" d="M1521.27,-74C1517.98,-73.23 1514.7,-72.55 1511.5,-72 1168.83,-13.12 1072.46,-79.79 723.32,-35.95"/>
<polygon fill="black" stroke="black" points="723.54,-32.45 713.18,-34.65 722.65,-39.39 723.54,-32.45"/>
</g>
<!-- mulle&#45;core&#45;&gt;mulle&#45;container -->
<g id="edge7" class="edge">
<title>mulle&#45;core&#45;&gt;mulle&#45;container</title>
<path fill="none" stroke="black" d="M1521.26,-74.03C1517.98,-73.26 1514.7,-72.57 1511.5,-72 1232.97,-22.66 1153.68,-75.35 870.05,-36.06"/>
<polygon fill="black" stroke="black" points="870.26,-32.56 859.87,-34.63 869.28,-39.49 870.26,-32.56"/>
</g>
<!-- mulle&#45;data -->
<g id="node12" class="node">
<title>mulle&#45;data</title>
<g id="a_node12"><a xlink:href="https://github.com/mulle-c/mulle-data@*" xlink:title="mulle&#45;data">
<polygon fill="lightgrey" stroke="black" points="969.5,-36 877.5,-36 877.5,0 969.5,0 969.5,-36"/>
<text text-anchor="middle" x="923.5" y="-14.3" font-family="Times,serif" font-size="14.00">mulle&#45;data</text>
</a>
</g>
</g>
<!-- mulle&#45;core&#45;&gt;mulle&#45;data -->
<g id="edge8" class="edge">
<title>mulle&#45;core&#45;&gt;mulle&#45;data</title>
<path fill="none" stroke="black" d="M1521.25,-74.08C1517.97,-73.29 1514.7,-72.59 1511.5,-72 1281.15,-29.82 1213.77,-78 979.36,-35.88"/>
<polygon fill="black" stroke="black" points="979.99,-32.43 969.52,-34.07 978.72,-39.32 979.99,-32.43"/>
</g>
<!-- mulle&#45;dlfcn -->
<g id="node13" class="node">
<title>mulle&#45;dlfcn</title>
<g id="a_node13"><a xlink:href="https://github.com/mulle-core/mulle-dlfcn@*" xlink:title="mulle&#45;dlfcn">
<polygon fill="lightgrey" stroke="black" points="1083.5,-36 987.5,-36 987.5,0 1083.5,0 1083.5,-36"/>
<text text-anchor="middle" x="1035.5" y="-14.3" font-family="Times,serif" font-size="14.00">mulle&#45;dlfcn</text>
</a>
</g>
</g>
<!-- mulle&#45;core&#45;&gt;mulle&#45;dlfcn -->
<g id="edge9" class="edge">
<title>mulle&#45;core&#45;&gt;mulle&#45;dlfcn</title>
<path fill="none" stroke="black" d="M1521.24,-74.14C1517.96,-73.34 1514.69,-72.61 1511.5,-72 1331.19,-37.28 1277.99,-69.71 1093.56,-35.95"/>
<polygon fill="black" stroke="black" points="1094,-32.48 1083.53,-34.08 1092.72,-39.36 1094,-32.48"/>
</g>
<!-- mulle&#45;fifo -->
<g id="node14" class="node">
<title>mulle&#45;fifo</title>
<g id="a_node14"><a xlink:href="https://github.com/mulle-concurrent/mulle-fifo@*" xlink:title="mulle&#45;fifo">
<polygon fill="lightgrey" stroke="black" points="1185,-36 1102,-36 1102,0 1185,0 1185,-36"/>
<text text-anchor="middle" x="1143.5" y="-14.3" font-family="Times,serif" font-size="14.00">mulle&#45;fifo</text>
</a>
</g>
</g>
<!-- mulle&#45;core&#45;&gt;mulle&#45;fifo -->
<g id="edge10" class="edge">
<title>mulle&#45;core&#45;&gt;mulle&#45;fifo</title>
<path fill="none" stroke="black" d="M1521.22,-74.24C1517.95,-73.42 1514.68,-72.66 1511.5,-72 1375.47,-43.9 1334.23,-65.98 1195.23,-36.12"/>
<polygon fill="black" stroke="black" points="1195.57,-32.61 1185.05,-33.87 1194.06,-39.44 1195.57,-32.61"/>
</g>
<!-- mulle&#45;fprintf -->
<g id="node15" class="node">
<title>mulle&#45;fprintf</title>
<g id="a_node15"><a xlink:href="https://github.com/mulle-core/mulle-fprintf@*" xlink:title="mulle&#45;fprintf">
<polygon fill="lightgrey" stroke="black" points="1310,-36 1203,-36 1203,0 1310,0 1310,-36"/>
<text text-anchor="middle" x="1256.5" y="-14.3" font-family="Times,serif" font-size="14.00">mulle&#45;fprintf</text>
</a>
</g>
</g>
<!-- mulle&#45;core&#45;&gt;mulle&#45;fprintf -->
<g id="edge11" class="edge">
<title>mulle&#45;core&#45;&gt;mulle&#45;fprintf</title>
<path fill="none" stroke="black" d="M1521.47,-74.59C1518.11,-73.67 1514.76,-72.8 1511.5,-72 1429.8,-52.04 1405.29,-55.28 1320.05,-36.25"/>
<polygon fill="black" stroke="black" points="1320.73,-32.82 1310.2,-34.02 1319.18,-39.64 1320.73,-32.82"/>
</g>
<!-- mulle&#45;http -->
<g id="node16" class="node">
<title>mulle&#45;http</title>
<g id="a_node16"><a xlink:href="https://github.com/mulle-c/mulle-http@*" xlink:title="mulle&#45;http">
<polygon fill="lightgrey" stroke="black" points="1419,-36 1328,-36 1328,0 1419,0 1419,-36"/>
<text text-anchor="middle" x="1373.5" y="-14.3" font-family="Times,serif" font-size="14.00">mulle&#45;http</text>
</a>
</g>
</g>
<!-- mulle&#45;core&#45;&gt;mulle&#45;http -->
<g id="edge12" class="edge">
<title>mulle&#45;core&#45;&gt;mulle&#45;http</title>
<path fill="none" stroke="black" d="M1521.03,-72.23C1493.34,-62.24 1458.02,-49.5 1428.88,-38.98"/>
<polygon fill="black" stroke="black" points="1429.85,-35.61 1419.25,-35.51 1427.47,-42.2 1429.85,-35.61"/>
</g>
<!-- mulle&#45;linkedlist -->
<g id="node17" class="node">
<title>mulle&#45;linkedlist</title>
<g id="a_node17"><a xlink:href="https://github.com/mulle-concurrent/mulle-linkedlist@*" xlink:title="mulle&#45;linkedlist">
<polygon fill="lightgrey" stroke="black" points="1564,-36 1437,-36 1437,0 1564,0 1564,-36"/>
<text text-anchor="middle" x="1500.5" y="-14.3" font-family="Times,serif" font-size="14.00">mulle&#45;linkedlist</text>
</a>
</g>
</g>
<!-- mulle&#45;core&#45;&gt;mulle&#45;linkedlist -->
<g id="edge13" class="edge">
<title>mulle&#45;core&#45;&gt;mulle&#45;linkedlist</title>
<path fill="none" stroke="black" d="M1550.94,-71.7C1542.82,-63.22 1532.91,-52.86 1524.03,-43.58"/>
<polygon fill="black" stroke="black" points="1526.31,-40.91 1516.87,-36.1 1521.26,-45.75 1526.31,-40.91"/>
</g>
<!-- mulle&#45;mmap -->
<g id="node18" class="node">
<title>mulle&#45;mmap</title>
<g id="a_node18"><a xlink:href="https://github.com/mulle-core/mulle-mmap@*" xlink:title="mulle&#45;mmap">
<polygon fill="lightgrey" stroke="black" points="1687,-36 1582,-36 1582,0 1687,0 1687,-36"/>
<text text-anchor="middle" x="1634.5" y="-14.3" font-family="Times,serif" font-size="14.00">mulle&#45;mmap</text>
</a>
</g>
</g>
<!-- mulle&#45;core&#45;&gt;mulle&#45;mmap -->
<g id="edge14" class="edge">
<title>mulle&#45;core&#45;&gt;mulle&#45;mmap</title>
<path fill="none" stroke="black" d="M1584.06,-71.7C1592.18,-63.22 1602.09,-52.86 1610.97,-43.58"/>
<polygon fill="black" stroke="black" points="1613.74,-45.75 1618.13,-36.1 1608.69,-40.91 1613.74,-45.75"/>
</g>
<!-- mulle&#45;multififo -->
<g id="node19" class="node">
<title>mulle&#45;multififo</title>
<g id="a_node19"><a xlink:href="https://github.com/mulle-concurrent/mulle-multififo@*" xlink:title="mulle&#45;multififo">
<polygon fill="lightgrey" stroke="black" points="1826,-36 1705,-36 1705,0 1826,0 1826,-36"/>
<text text-anchor="middle" x="1765.5" y="-14.3" font-family="Times,serif" font-size="14.00">mulle&#45;multififo</text>
</a>
</g>
</g>
<!-- mulle&#45;core&#45;&gt;mulle&#45;multififo -->
<g id="edge15" class="edge">
<title>mulle&#45;core&#45;&gt;mulle&#45;multififo</title>
<path fill="none" stroke="black" d="M1613.67,-72.68C1641.72,-62.76 1677.77,-50.02 1707.7,-39.44"/>
<polygon fill="black" stroke="black" points="1708.92,-42.72 1717.18,-36.08 1706.59,-36.12 1708.92,-42.72"/>
</g>
<!-- mulle&#45;rbtree -->
<g id="node20" class="node">
<title>mulle&#45;rbtree</title>
<g id="a_node20"><a xlink:href="https://github.com/mulle-c/mulle-rbtree@*" xlink:title="mulle&#45;rbtree">
<polygon fill="lightgrey" stroke="black" points="1950.5,-36 1844.5,-36 1844.5,0 1950.5,0 1950.5,-36"/>
<text text-anchor="middle" x="1897.5" y="-14.3" font-family="Times,serif" font-size="14.00">mulle&#45;rbtree</text>
</a>
</g>
</g>
<!-- mulle&#45;core&#45;&gt;mulle&#45;rbtree -->
<g id="edge16" class="edge">
<title>mulle&#45;core&#45;&gt;mulle&#45;rbtree</title>
<path fill="none" stroke="black" d="M1613.72,-80.91C1665.26,-71.65 1751.31,-55.51 1834.59,-36.13"/>
<polygon fill="black" stroke="black" points="1835.53,-39.5 1844.46,-33.81 1833.93,-32.69 1835.53,-39.5"/>
</g>
<!-- mulle&#45;slug -->
<g id="node21" class="node">
<title>mulle&#45;slug</title>
<g id="a_node21"><a xlink:href="https://github.com/mulle-c/mulle-slug@*" xlink:title="mulle&#45;slug">
<polygon fill="lightgrey" stroke="black" points="2060,-36 1969,-36 1969,0 2060,0 2060,-36"/>
<text text-anchor="middle" x="2014.5" y="-14.3" font-family="Times,serif" font-size="14.00">mulle&#45;slug</text>
</a>
</g>
</g>
<!-- mulle&#45;core&#45;&gt;mulle&#45;slug -->
<g id="edge17" class="edge">
<title>mulle&#45;core&#45;&gt;mulle&#45;slug</title>
<path fill="none" stroke="black" d="M1613.8,-85.24C1685.71,-78.86 1828.61,-64 1958.6,-35.98"/>
<polygon fill="black" stroke="black" points="1959.71,-39.32 1968.74,-33.77 1958.22,-32.48 1959.71,-39.32"/>
</g>
<!-- mulle&#45;sprintf -->
<g id="node22" class="node">
<title>mulle&#45;sprintf</title>
<g id="a_node22"><a xlink:href="https://github.com/mulle-core/mulle-sprintf@*" xlink:title="mulle&#45;sprintf">
<polygon fill="lightgrey" stroke="black" points="2187,-36 2078,-36 2078,0 2187,0 2187,-36"/>
<text text-anchor="middle" x="2132.5" y="-14.3" font-family="Times,serif" font-size="14.00">mulle&#45;sprintf</text>
</a>
</g>
</g>
<!-- mulle&#45;core&#45;&gt;mulle&#45;sprintf -->
<g id="edge18" class="edge">
<title>mulle&#45;core&#45;&gt;mulle&#45;sprintf</title>
<path fill="none" stroke="black" d="M1613.53,-86.58C1700.65,-81.49 1895.62,-67.55 2067.97,-36.13"/>
<polygon fill="black" stroke="black" points="2068.79,-39.54 2077.99,-34.28 2067.52,-32.65 2068.79,-39.54"/>
</g>
<!-- mulle&#45;stacktrace -->
<g id="node23" class="node">
<title>mulle&#45;stacktrace</title>
<g id="a_node23"><a xlink:href="https://github.com/mulle-core/mulle-stacktrace@*" xlink:title="mulle&#45;stacktrace">
<polygon fill="lightgrey" stroke="black" points="2340,-36 2205,-36 2205,0 2340,0 2340,-36"/>
<text text-anchor="middle" x="2272.5" y="-14.3" font-family="Times,serif" font-size="14.00">mulle&#45;stacktrace</text>
</a>
</g>
</g>
<!-- mulle&#45;core&#45;&gt;mulle&#45;stacktrace -->
<g id="edge19" class="edge">
<title>mulle&#45;core&#45;&gt;mulle&#45;stacktrace</title>
<path fill="none" stroke="black" d="M1613.53,-87.27C1716.28,-82.94 1972.21,-69.6 2194.73,-36.17"/>
<polygon fill="black" stroke="black" points="2195.27,-39.62 2204.63,-34.66 2194.22,-32.7 2195.27,-39.62"/>
</g>
<!-- mulle&#45;storage -->
<g id="node24" class="node">
<title>mulle&#45;storage</title>
<g id="a_node24"><a xlink:href="https://github.com/mulle-c/mulle-storage@*" xlink:title="mulle&#45;storage">
<polygon fill="lightgrey" stroke="black" points="2473,-36 2358,-36 2358,0 2473,0 2473,-36"/>
<text text-anchor="middle" x="2415.5" y="-14.3" font-family="Times,serif" font-size="14.00">mulle&#45;storage</text>
</a>
</g>
</g>
<!-- mulle&#45;core&#45;&gt;mulle&#45;storage -->
<g id="edge20" class="edge">
<title>mulle&#45;core&#45;&gt;mulle&#45;storage</title>
<path fill="none" stroke="black" d="M1613.67,-88.83C1733.61,-87.76 2064.87,-80.79 2347.64,-36.14"/>
<polygon fill="black" stroke="black" points="2348.36,-39.57 2357.68,-34.54 2347.25,-32.66 2348.36,-39.57"/>
</g>
<!-- mulle&#45;thread -->
<g id="node25" class="node">
<title>mulle&#45;thread</title>
<g id="a_node25"><a xlink:href="https://github.com/mulle-concurrent/mulle-thread@*" xlink:title="mulle&#45;thread">
<polygon fill="lightgrey" stroke="black" points="2599.5,-36 2491.5,-36 2491.5,0 2599.5,0 2599.5,-36"/>
<text text-anchor="middle" x="2545.5" y="-14.3" font-family="Times,serif" font-size="14.00">mulle&#45;thread</text>
</a>
</g>
</g>
<!-- mulle&#45;core&#45;&gt;mulle&#45;thread -->
<g id="edge21" class="edge">
<title>mulle&#45;core&#45;&gt;mulle&#45;thread</title>
<path fill="none" stroke="black" d="M1613.56,-89.66C1746.93,-90.87 2144.78,-89.5 2481.42,-35.97"/>
<polygon fill="black" stroke="black" points="2482.04,-39.41 2491.36,-34.37 2480.93,-32.5 2482.04,-39.41"/>
</g>
<!-- mulle&#45;time -->
<g id="node26" class="node">
<title>mulle&#45;time</title>
<g id="a_node26"><a xlink:href="https://github.com/mulle-core/mulle-time@*" xlink:title="mulle&#45;time">
<polygon fill="lightgrey" stroke="black" points="2711,-36 2618,-36 2618,0 2711,0 2711,-36"/>
<text text-anchor="middle" x="2664.5" y="-14.3" font-family="Times,serif" font-size="14.00">mulle&#45;time</text>
</a>
</g>
</g>
<!-- mulle&#45;core&#45;&gt;mulle&#45;time -->
<g id="edge22" class="edge">
<title>mulle&#45;core&#45;&gt;mulle&#45;time</title>
<path fill="none" stroke="black" d="M1613.62,-88.15C1786.08,-84.72 2393.68,-70.56 2608.05,-35.73"/>
<polygon fill="black" stroke="black" points="2608.68,-39.17 2617.96,-34.06 2607.51,-32.27 2608.68,-39.17"/>
</g>
<!-- mulle&#45;unicode -->
<g id="node27" class="node">
<title>mulle&#45;unicode</title>
<g id="a_node27"><a xlink:href="https://github.com/mulle-c/mulle-unicode@*" xlink:title="mulle&#45;unicode">
<polygon fill="lightgrey" stroke="black" points="2845.5,-36 2729.5,-36 2729.5,0 2845.5,0 2845.5,-36"/>
<text text-anchor="middle" x="2787.5" y="-14.3" font-family="Times,serif" font-size="14.00">mulle&#45;unicode</text>
</a>
</g>
</g>
<!-- mulle&#45;core&#45;&gt;mulle&#45;unicode -->
<g id="edge23" class="edge">
<title>mulle&#45;core&#45;&gt;mulle&#45;unicode</title>
<path fill="none" stroke="black" d="M1613.66,-88.13C1797.89,-84.45 2481.6,-68.94 2719.22,-35.97"/>
<polygon fill="black" stroke="black" points="2719.78,-39.43 2729.18,-34.54 2718.78,-32.5 2719.78,-39.43"/>
</g>
<!-- mulle&#45;url -->
<g id="node28" class="node">
<title>mulle&#45;url</title>
<g id="a_node28"><a xlink:href="https://github.com/mulle-c/mulle-url@*" xlink:title="mulle&#45;url">
<polygon fill="lightgrey" stroke="black" points="2945,-36 2864,-36 2864,0 2945,0 2945,-36"/>
<text text-anchor="middle" x="2904.5" y="-14.3" font-family="Times,serif" font-size="14.00">mulle&#45;url</text>
</a>
</g>
</g>
<!-- mulle&#45;core&#45;&gt;mulle&#45;url -->
<g id="edge24" class="edge">
<title>mulle&#45;core&#45;&gt;mulle&#45;url</title>
<path fill="none" stroke="black" d="M1613.59,-88.87C1811.29,-88.02 2589.15,-81.91 2853.87,-35.69"/>
<polygon fill="black" stroke="black" points="2854.61,-39.12 2863.83,-33.89 2853.36,-32.23 2854.61,-39.12"/>
</g>
<!-- mulle&#45;utf -->
<g id="node29" class="node">
<title>mulle&#45;utf</title>
<g id="a_node29"><a xlink:href="https://github.com/mulle-c/mulle-utf@*" xlink:title="mulle&#45;utf">
<polygon fill="lightgrey" stroke="black" points="3044,-36 2963,-36 2963,0 3044,0 3044,-36"/>
<text text-anchor="middle" x="3003.5" y="-14.3" font-family="Times,serif" font-size="14.00">mulle&#45;utf</text>
</a>
</g>
</g>
<!-- mulle&#45;core&#45;&gt;mulle&#45;utf -->
<g id="edge25" class="edge">
<title>mulle&#45;core&#45;&gt;mulle&#45;utf</title>
<path fill="none" stroke="black" d="M1613.61,-89.06C1820.92,-89.07 2668.63,-86.08 2952.96,-35.92"/>
<polygon fill="black" stroke="black" points="2953.63,-39.36 2962.84,-34.12 2952.37,-32.47 2953.63,-39.36"/>
</g>
<!-- mulle&#45;vararg -->
<g id="node30" class="node">
<title>mulle&#45;vararg</title>
<g id="a_node30"><a xlink:href="https://github.com/mulle-c/mulle-vararg@*" xlink:title="mulle&#45;vararg">
<polygon fill="lightgrey" stroke="black" points="3170.5,-36 3062.5,-36 3062.5,0 3170.5,0 3170.5,-36"/>
<text text-anchor="middle" x="3116.5" y="-14.3" font-family="Times,serif" font-size="14.00">mulle&#45;vararg</text>
</a>
</g>
</g>
<!-- mulle&#45;core&#45;&gt;mulle&#45;vararg -->
<g id="edge26" class="edge">
<title>mulle&#45;core&#45;&gt;mulle&#45;vararg</title>
<path fill="none" stroke="black" d="M1613.86,-88.77C1830.49,-87.47 2744.98,-79.54 3052.14,-35.95"/>
<polygon fill="black" stroke="black" points="3052.98,-39.36 3062.37,-34.45 3051.97,-32.43 3052.98,-39.36"/>
</g>
</g>
</svg>
