<svg xmlns="http://www.w3.org/2000/svg" xmlns:xlink="http://www.w3.org/1999/xlink" width="266pt" height="116pt" viewBox="0 0 266 116"><g id="graph0" class="graph" transform="scale(1 1) rotate(0) translate(4 112)"><title>sourcetree</title><polygon fill="#fff" stroke="transparent" points="-4 4 -4 -112 262 -112 262 4 -4 4"/><g id="node1" class="node"><title>mulle-objc-runtime</title><polygon fill="#ff0" stroke="#000" points="219 -108 67 -108 67 -72 219 -72 219 -108"/><text x="143" y="-86.3" font-family="Times,serif" font-size="14" text-anchor="middle">mulle-objc-runtime</text></g><g id="node2" class="node"><title>mulle-core-all-load</title><g id="a_node2"><a xlink:href="https://github.com/mulle-core/mulle-core-all-load" xlink:title="mulle-core-all-load"><polygon fill="#d3d3d3" stroke="#000" points="148 -36 0 -36 0 0 148 0 148 -36"/><text x="74" y="-14.3" font-family="Times,serif" font-size="14" text-anchor="middle">mulle-core-all-load</text></a></g></g><g id="edge2" class="edge"><title>mulle-objc-runtime-&gt;mulle-core-all-load</title><path fill="none" stroke="#000" d="M125.94,-71.7C117.5,-63.14 107.18,-52.66 97.96,-43.3"/><polygon fill="#000" stroke="#000" points="100.37 -40.77 90.86 -36.1 95.39 -45.68 100.37 -40.77"/></g><g id="node3" class="node"><title>mulle-core</title><g id="a_node3"><a xlink:href="https://github.com/mulle-core/mulle-core" xlink:title="mulle-core"><polygon fill="#d3d3d3" stroke="#000" points="258 -36 166 -36 166 0 258 0 258 -36"/><text x="212" y="-14.3" font-family="Times,serif" font-size="14" text-anchor="middle">mulle-core</text></a></g></g><g id="edge1" class="edge"><title>mulle-objc-runtime-&gt;mulle-core</title><path fill="none" stroke="#000" d="M160.06,-71.7C168.5,-63.14 178.82,-52.66 188.04,-43.3"/><polygon fill="#000" stroke="#000" points="190.61 -45.68 195.14 -36.1 185.63 -40.77 190.61 -45.68"/></g></g></svg>