<?xml version="1.0" encoding="UTF-8" standalone="no"?>
<!DOCTYPE svg PUBLIC "-//W3C//DTD SVG 1.1//EN"
 "http://www.w3.org/Graphics/SVG/1.1/DTD/svg11.dtd">
<!-- Generated by graphviz version 2.43.0 (0)
 -->
<!-- Title: sourcetree Pages: 1 -->
<svg width="2674pt" height="188pt"
 viewBox="0.00 0.00 2674.00 188.00" xmlns="http://www.w3.org/2000/svg" xmlns:xlink="http://www.w3.org/1999/xlink">
<g id="graph0" class="graph" transform="scale(1 1) rotate(0) translate(4 184)">
<title>sourcetree</title>
<polygon fill="white" stroke="transparent" points="-4,4 -4,-184 2670,-184 2670,4 -4,4"/>
<!-- mulle&#45;objc&#45;runtime -->
<g id="node1" class="node">
<title>mulle&#45;objc&#45;runtime</title>
<polygon fill="yellow" stroke="black" points="1292,-180 1140,-180 1140,-144 1292,-144 1292,-180"/>
<text text-anchor="middle" x="1216" y="-158.3" font-family="Times,serif" font-size="14.00">mulle&#45;objc&#45;runtime</text>
</g>
<!-- mulle&#45;atexit -->
<g id="node4" class="node">
<title>mulle&#45;atexit</title>
<g id="a_node4"><a xlink:href="https://github.com/mulle-core/mulle-atexit" xlink:title="mulle&#45;atexit">
<polygon fill="lightgrey" stroke="black" points="1148,-108 1046,-108 1046,-72 1148,-72 1148,-108"/>
<text text-anchor="middle" x="1097" y="-86.3" font-family="Times,serif" font-size="14.00">mulle&#45;atexit</text>
</a>
</g>
</g>
<!-- mulle&#45;objc&#45;runtime&#45;&gt;mulle&#45;atexit -->
<g id="edge23" class="edge">
<title>mulle&#45;objc&#45;runtime&#45;&gt;mulle&#45;atexit</title>
<path fill="none" stroke="black" d="M1186.89,-143.88C1171.33,-134.72 1151.98,-123.34 1135.22,-113.48"/>
<polygon fill="black" stroke="black" points="1136.62,-110.24 1126.22,-108.19 1133.07,-116.28 1136.62,-110.24"/>
</g>
<!-- mulle&#45;atinit -->
<g id="node5" class="node">
<title>mulle&#45;atinit</title>
<g id="a_node5"><a xlink:href="https://github.com/mulle-core/mulle-atinit" xlink:title="mulle&#45;atinit">
<polygon fill="lightgrey" stroke="black" points="1265.5,-108 1166.5,-108 1166.5,-72 1265.5,-72 1265.5,-108"/>
<text text-anchor="middle" x="1216" y="-86.3" font-family="Times,serif" font-size="14.00">mulle&#45;atinit</text>
</a>
</g>
</g>
<!-- mulle&#45;objc&#45;runtime&#45;&gt;mulle&#45;atinit -->
<g id="edge24" class="edge">
<title>mulle&#45;objc&#45;runtime&#45;&gt;mulle&#45;atinit</title>
<path fill="none" stroke="black" d="M1216,-143.7C1216,-135.98 1216,-126.71 1216,-118.11"/>
<polygon fill="black" stroke="black" points="1219.5,-118.1 1216,-108.1 1212.5,-118.1 1219.5,-118.1"/>
</g>
<!-- mulle&#45;core -->
<g id="node10" class="node">
<title>mulle&#45;core</title>
<g id="a_node10"><a xlink:href="https://github.com/mulle-core/mulle-core" xlink:title="mulle&#45;core">
<polygon fill="lightgrey" stroke="black" points="1376,-108 1284,-108 1284,-72 1376,-72 1376,-108"/>
<text text-anchor="middle" x="1330" y="-86.3" font-family="Times,serif" font-size="14.00">mulle&#45;core</text>
</a>
</g>
</g>
<!-- mulle&#45;objc&#45;runtime&#45;&gt;mulle&#45;core -->
<g id="edge25" class="edge">
<title>mulle&#45;objc&#45;runtime&#45;&gt;mulle&#45;core</title>
<path fill="none" stroke="black" d="M1243.89,-143.88C1258.79,-134.72 1277.33,-123.34 1293.38,-113.48"/>
<polygon fill="black" stroke="black" points="1295.31,-116.41 1302.01,-108.19 1291.65,-110.44 1295.31,-116.41"/>
</g>
<!-- mulle&#45;aba -->
<g id="node2" class="node">
<title>mulle&#45;aba</title>
<g id="a_node2"><a xlink:href="https://github.com/mulle-concurrent/mulle-aba@*" xlink:title="mulle&#45;aba">
<polygon fill="lightgrey" stroke="black" points="86,-36 0,-36 0,0 86,0 86,-36"/>
<text text-anchor="middle" x="43" y="-14.3" font-family="Times,serif" font-size="14.00">mulle&#45;aba</text>
</a>
</g>
</g>
<!-- mulle&#45;allocator -->
<g id="node3" class="node">
<title>mulle&#45;allocator</title>
<g id="a_node3"><a xlink:href="https://github.com/mulle-c/mulle-allocator@*" xlink:title="mulle&#45;allocator">
<polygon fill="lightgrey" stroke="black" points="227.5,-36 104.5,-36 104.5,0 227.5,0 227.5,-36"/>
<text text-anchor="middle" x="166" y="-14.3" font-family="Times,serif" font-size="14.00">mulle&#45;allocator</text>
</a>
</g>
</g>
<!-- mulle&#45;buffer -->
<g id="node6" class="node">
<title>mulle&#45;buffer</title>
<g id="a_node6"><a xlink:href="https://github.com/mulle-c/mulle-buffer@*" xlink:title="mulle&#45;buffer">
<polygon fill="lightgrey" stroke="black" points="350,-36 246,-36 246,0 350,0 350,-36"/>
<text text-anchor="middle" x="298" y="-14.3" font-family="Times,serif" font-size="14.00">mulle&#45;buffer</text>
</a>
</g>
</g>
<!-- mulle&#45;c11 -->
<g id="node7" class="node">
<title>mulle&#45;c11</title>
<g id="a_node7"><a xlink:href="https://github.com/mulle-c/mulle-c11@*" xlink:title="mulle&#45;c11">
<polygon fill="lightgrey" stroke="black" points="454,-36 368,-36 368,0 454,0 454,-36"/>
<text text-anchor="middle" x="411" y="-14.3" font-family="Times,serif" font-size="14.00">mulle&#45;c11</text>
</a>
</g>
</g>
<!-- mulle&#45;concurrent -->
<g id="node8" class="node">
<title>mulle&#45;concurrent</title>
<g id="a_node8"><a xlink:href="https://github.com/mulle-concurrent/mulle-concurrent@*" xlink:title="mulle&#45;concurrent">
<polygon fill="lightgrey" stroke="black" points="611.5,-36 472.5,-36 472.5,0 611.5,0 611.5,-36"/>
<text text-anchor="middle" x="542" y="-14.3" font-family="Times,serif" font-size="14.00">mulle&#45;concurrent</text>
</a>
</g>
</g>
<!-- mulle&#45;container -->
<g id="node9" class="node">
<title>mulle&#45;container</title>
<g id="a_node9"><a xlink:href="https://github.com/mulle-c/mulle-container@*" xlink:title="mulle&#45;container">
<polygon fill="lightgrey" stroke="black" points="758,-36 630,-36 630,0 758,0 758,-36"/>
<text text-anchor="middle" x="694" y="-14.3" font-family="Times,serif" font-size="14.00">mulle&#45;container</text>
</a>
</g>
</g>
<!-- mulle&#45;core&#45;&gt;mulle&#45;aba -->
<g id="edge1" class="edge">
<title>mulle&#45;core&#45;&gt;mulle&#45;aba</title>
<path fill="none" stroke="black" d="M1283.78,-73.94C1280.49,-73.19 1277.21,-72.53 1274,-72 759.96,12.34 613.26,-124.61 96.13,-35.86"/>
<polygon fill="black" stroke="black" points="96.63,-32.4 86.18,-34.14 95.43,-39.3 96.63,-32.4"/>
</g>
<!-- mulle&#45;core&#45;&gt;mulle&#45;allocator -->
<g id="edge2" class="edge">
<title>mulle&#45;core&#45;&gt;mulle&#45;allocator</title>
<path fill="none" stroke="black" d="M1283.77,-73.95C1280.49,-73.2 1277.21,-72.53 1274,-72 822.41,3.06 695.83,-96.52 238.01,-35.94"/>
<polygon fill="black" stroke="black" points="238.19,-32.43 227.82,-34.57 237.26,-39.37 238.19,-32.43"/>
</g>
<!-- mulle&#45;core&#45;&gt;mulle&#45;buffer -->
<g id="edge3" class="edge">
<title>mulle&#45;core&#45;&gt;mulle&#45;buffer</title>
<path fill="none" stroke="black" d="M1283.77,-73.97C1280.49,-73.21 1277.21,-72.54 1274,-72 876.01,-4.9 762.94,-97.49 360.24,-35.95"/>
<polygon fill="black" stroke="black" points="360.49,-32.44 350.07,-34.37 359.41,-39.36 360.49,-32.44"/>
</g>
<!-- mulle&#45;core&#45;&gt;mulle&#45;c11 -->
<g id="edge4" class="edge">
<title>mulle&#45;core&#45;&gt;mulle&#45;c11</title>
<path fill="none" stroke="black" d="M1283.77,-73.99C1280.48,-73.23 1277.2,-72.55 1274,-72 921.67,-11.69 819.84,-99 464.24,-35.9"/>
<polygon fill="black" stroke="black" points="464.65,-32.42 454.18,-34.09 463.4,-39.31 464.65,-32.42"/>
</g>
<!-- mulle&#45;core&#45;&gt;mulle&#45;concurrent -->
<g id="edge5" class="edge">
<title>mulle&#45;core&#45;&gt;mulle&#45;concurrent</title>
<path fill="none" stroke="black" d="M1283.76,-74.03C1280.48,-73.26 1277.2,-72.57 1274,-72 990.99,-21.99 910.87,-73.51 621.62,-35.93"/>
<polygon fill="black" stroke="black" points="622.06,-32.46 611.68,-34.62 621.14,-39.4 622.06,-32.46"/>
</g>
<!-- mulle&#45;core&#45;&gt;mulle&#45;container -->
<g id="edge6" class="edge">
<title>mulle&#45;core&#45;&gt;mulle&#45;container</title>
<path fill="none" stroke="black" d="M1283.75,-74.09C1280.47,-73.3 1277.2,-72.59 1274,-72 1055.12,-31.53 992.21,-68.6 768.47,-36.07"/>
<polygon fill="black" stroke="black" points="768.79,-32.58 758.38,-34.57 767.76,-39.5 768.79,-32.58"/>
</g>
<!-- mulle&#45;data -->
<g id="node11" class="node">
<title>mulle&#45;data</title>
<g id="a_node11"><a xlink:href="https://github.com/mulle-c/mulle-data@*" xlink:title="mulle&#45;data">
<polygon fill="lightgrey" stroke="black" points="868,-36 776,-36 776,0 868,0 868,-36"/>
<text text-anchor="middle" x="822" y="-14.3" font-family="Times,serif" font-size="14.00">mulle&#45;data</text>
</a>
</g>
</g>
<!-- mulle&#45;core&#45;&gt;mulle&#45;data -->
<g id="edge7" class="edge">
<title>mulle&#45;core&#45;&gt;mulle&#45;data</title>
<path fill="none" stroke="black" d="M1283.74,-74.16C1280.46,-73.35 1277.19,-72.62 1274,-72 1103.33,-38.72 1052.68,-69.17 878.07,-35.95"/>
<polygon fill="black" stroke="black" points="878.52,-32.47 868.03,-34 877.18,-39.34 878.52,-32.47"/>
</g>
<!-- mulle&#45;dlfcn -->
<g id="node12" class="node">
<title>mulle&#45;dlfcn</title>
<g id="a_node12"><a xlink:href="https://github.com/mulle-core/mulle-dlfcn@*" xlink:title="mulle&#45;dlfcn">
<polygon fill="lightgrey" stroke="black" points="982,-36 886,-36 886,0 982,0 982,-36"/>
<text text-anchor="middle" x="934" y="-14.3" font-family="Times,serif" font-size="14.00">mulle&#45;dlfcn</text>
</a>
</g>
</g>
<!-- mulle&#45;core&#45;&gt;mulle&#45;dlfcn -->
<g id="edge8" class="edge">
<title>mulle&#45;core&#45;&gt;mulle&#45;dlfcn</title>
<path fill="none" stroke="black" d="M1283.71,-74.29C1280.44,-73.46 1277.18,-72.68 1274,-72 1153.16,-46.16 1116.89,-61.39 992,-36"/>
<polygon fill="black" stroke="black" points="992.56,-32.54 982.06,-33.93 991.14,-39.4 992.56,-32.54"/>
</g>
<!-- mulle&#45;fifo -->
<g id="node13" class="node">
<title>mulle&#45;fifo</title>
<g id="a_node13"><a xlink:href="https://github.com/mulle-concurrent/mulle-fifo@*" xlink:title="mulle&#45;fifo">
<polygon fill="lightgrey" stroke="black" points="1083.5,-36 1000.5,-36 1000.5,0 1083.5,0 1083.5,-36"/>
<text text-anchor="middle" x="1042" y="-14.3" font-family="Times,serif" font-size="14.00">mulle&#45;fifo</text>
</a>
</g>
</g>
<!-- mulle&#45;core&#45;&gt;mulle&#45;fifo -->
<g id="edge9" class="edge">
<title>mulle&#45;core&#45;&gt;mulle&#45;fifo</title>
<path fill="none" stroke="black" d="M1283.96,-74.63C1280.6,-73.7 1277.25,-72.81 1274,-72 1197.13,-52.78 1173.49,-56.94 1093.64,-36.26"/>
<polygon fill="black" stroke="black" points="1094.18,-32.78 1083.62,-33.61 1092.39,-39.55 1094.18,-32.78"/>
</g>
<!-- mulle&#45;fprintf -->
<g id="node14" class="node">
<title>mulle&#45;fprintf</title>
<g id="a_node14"><a xlink:href="https://github.com/mulle-core/mulle-fprintf@*" xlink:title="mulle&#45;fprintf">
<polygon fill="lightgrey" stroke="black" points="1208.5,-36 1101.5,-36 1101.5,0 1208.5,0 1208.5,-36"/>
<text text-anchor="middle" x="1155" y="-14.3" font-family="Times,serif" font-size="14.00">mulle&#45;fprintf</text>
</a>
</g>
</g>
<!-- mulle&#45;core&#45;&gt;mulle&#45;fprintf -->
<g id="edge10" class="edge">
<title>mulle&#45;core&#45;&gt;mulle&#45;fprintf</title>
<path fill="none" stroke="black" d="M1287.19,-71.88C1263.05,-62.22 1232.72,-50.09 1207.19,-39.88"/>
<polygon fill="black" stroke="black" points="1208.26,-36.53 1197.67,-36.07 1205.66,-43.03 1208.26,-36.53"/>
</g>
<!-- mulle&#45;http -->
<g id="node15" class="node">
<title>mulle&#45;http</title>
<g id="a_node15"><a xlink:href="https://github.com/mulle-c/mulle-http@*" xlink:title="mulle&#45;http">
<polygon fill="lightgrey" stroke="black" points="1317.5,-36 1226.5,-36 1226.5,0 1317.5,0 1317.5,-36"/>
<text text-anchor="middle" x="1272" y="-14.3" font-family="Times,serif" font-size="14.00">mulle&#45;http</text>
</a>
</g>
</g>
<!-- mulle&#45;core&#45;&gt;mulle&#45;http -->
<g id="edge11" class="edge">
<title>mulle&#45;core&#45;&gt;mulle&#45;http</title>
<path fill="none" stroke="black" d="M1315.66,-71.7C1308.71,-63.3 1300.23,-53.07 1292.6,-43.86"/>
<polygon fill="black" stroke="black" points="1295.25,-41.57 1286.17,-36.1 1289.86,-46.04 1295.25,-41.57"/>
</g>
<!-- mulle&#45;mmap -->
<g id="node16" class="node">
<title>mulle&#45;mmap</title>
<g id="a_node16"><a xlink:href="https://github.com/mulle-core/mulle-mmap@*" xlink:title="mulle&#45;mmap">
<polygon fill="lightgrey" stroke="black" points="1440.5,-36 1335.5,-36 1335.5,0 1440.5,0 1440.5,-36"/>
<text text-anchor="middle" x="1388" y="-14.3" font-family="Times,serif" font-size="14.00">mulle&#45;mmap</text>
</a>
</g>
</g>
<!-- mulle&#45;core&#45;&gt;mulle&#45;mmap -->
<g id="edge12" class="edge">
<title>mulle&#45;core&#45;&gt;mulle&#45;mmap</title>
<path fill="none" stroke="black" d="M1344.34,-71.7C1351.29,-63.3 1359.77,-53.07 1367.4,-43.86"/>
<polygon fill="black" stroke="black" points="1370.14,-46.04 1373.83,-36.1 1364.75,-41.57 1370.14,-46.04"/>
</g>
<!-- mulle&#45;multififo -->
<g id="node17" class="node">
<title>mulle&#45;multififo</title>
<g id="a_node17"><a xlink:href="https://github.com/mulle-concurrent/mulle-multififo@*" xlink:title="mulle&#45;multififo">
<polygon fill="lightgrey" stroke="black" points="1579.5,-36 1458.5,-36 1458.5,0 1579.5,0 1579.5,-36"/>
<text text-anchor="middle" x="1519" y="-14.3" font-family="Times,serif" font-size="14.00">mulle&#45;multififo</text>
</a>
</g>
</g>
<!-- mulle&#45;core&#45;&gt;mulle&#45;multififo -->
<g id="edge13" class="edge">
<title>mulle&#45;core&#45;&gt;mulle&#45;multififo</title>
<path fill="none" stroke="black" d="M1376.23,-71.88C1402.53,-62.14 1435.64,-49.87 1463.36,-39.61"/>
<polygon fill="black" stroke="black" points="1464.75,-42.82 1472.92,-36.07 1462.32,-36.26 1464.75,-42.82"/>
</g>
<!-- mulle&#45;slug -->
<g id="node18" class="node">
<title>mulle&#45;slug</title>
<g id="a_node18"><a xlink:href="https://github.com/mulle-c/mulle-slug@*" xlink:title="mulle&#45;slug">
<polygon fill="lightgrey" stroke="black" points="1688.5,-36 1597.5,-36 1597.5,0 1688.5,0 1688.5,-36"/>
<text text-anchor="middle" x="1643" y="-14.3" font-family="Times,serif" font-size="14.00">mulle&#45;slug</text>
</a>
</g>
</g>
<!-- mulle&#45;core&#45;&gt;mulle&#45;slug -->
<g id="edge14" class="edge">
<title>mulle&#45;core&#45;&gt;mulle&#45;slug</title>
<path fill="none" stroke="black" d="M1376.18,-81.04C1426.1,-72.1 1508.17,-56.45 1587.3,-36.32"/>
<polygon fill="black" stroke="black" points="1588.62,-39.59 1597.43,-33.71 1586.87,-32.81 1588.62,-39.59"/>
</g>
<!-- mulle&#45;sprintf -->
<g id="node19" class="node">
<title>mulle&#45;sprintf</title>
<g id="a_node19"><a xlink:href="https://github.com/mulle-core/mulle-sprintf@*" xlink:title="mulle&#45;sprintf">
<polygon fill="lightgrey" stroke="black" points="1815.5,-36 1706.5,-36 1706.5,0 1815.5,0 1815.5,-36"/>
<text text-anchor="middle" x="1761" y="-14.3" font-family="Times,serif" font-size="14.00">mulle&#45;sprintf</text>
</a>
</g>
</g>
<!-- mulle&#45;core&#45;&gt;mulle&#45;sprintf -->
<g id="edge15" class="edge">
<title>mulle&#45;core&#45;&gt;mulle&#45;sprintf</title>
<path fill="none" stroke="black" d="M1376.21,-84.16C1444.32,-76.62 1575.81,-60.56 1696.32,-36.22"/>
<polygon fill="black" stroke="black" points="1697.36,-39.58 1706.46,-34.15 1695.96,-32.72 1697.36,-39.58"/>
</g>
<!-- mulle&#45;stacktrace -->
<g id="node20" class="node">
<title>mulle&#45;stacktrace</title>
<g id="a_node20"><a xlink:href="https://github.com/mulle-core/mulle-stacktrace@*" xlink:title="mulle&#45;stacktrace">
<polygon fill="lightgrey" stroke="black" points="1968.5,-36 1833.5,-36 1833.5,0 1968.5,0 1968.5,-36"/>
<text text-anchor="middle" x="1901" y="-14.3" font-family="Times,serif" font-size="14.00">mulle&#45;stacktrace</text>
</a>
</g>
</g>
<!-- mulle&#45;core&#45;&gt;mulle&#45;stacktrace -->
<g id="edge16" class="edge">
<title>mulle&#45;core&#45;&gt;mulle&#45;stacktrace</title>
<path fill="none" stroke="black" d="M1376.3,-85.8C1462.47,-79.48 1653.4,-63.66 1823.01,-36.24"/>
<polygon fill="black" stroke="black" points="1823.82,-39.65 1833.12,-34.58 1822.69,-32.74 1823.82,-39.65"/>
</g>
<!-- mulle&#45;thread -->
<g id="node21" class="node">
<title>mulle&#45;thread</title>
<g id="a_node21"><a xlink:href="https://github.com/mulle-concurrent/mulle-thread@*" xlink:title="mulle&#45;thread">
<polygon fill="lightgrey" stroke="black" points="2095,-36 1987,-36 1987,0 2095,0 2095,-36"/>
<text text-anchor="middle" x="2041" y="-14.3" font-family="Times,serif" font-size="14.00">mulle&#45;thread</text>
</a>
</g>
</g>
<!-- mulle&#45;core&#45;&gt;mulle&#45;thread -->
<g id="edge17" class="edge">
<title>mulle&#45;core&#45;&gt;mulle&#45;thread</title>
<path fill="none" stroke="black" d="M1376.33,-88.1C1481.65,-85.43 1747.11,-75.21 1976.96,-35.99"/>
<polygon fill="black" stroke="black" points="1977.59,-39.44 1986.84,-34.28 1976.39,-32.54 1977.59,-39.44"/>
</g>
<!-- mulle&#45;time -->
<g id="node22" class="node">
<title>mulle&#45;time</title>
<g id="a_node22"><a xlink:href="https://github.com/mulle-core/mulle-time@*" xlink:title="mulle&#45;time">
<polygon fill="lightgrey" stroke="black" points="2206.5,-36 2113.5,-36 2113.5,0 2206.5,0 2206.5,-36"/>
<text text-anchor="middle" x="2160" y="-14.3" font-family="Times,serif" font-size="14.00">mulle&#45;time</text>
</a>
</g>
</g>
<!-- mulle&#45;core&#45;&gt;mulle&#45;time -->
<g id="edge18" class="edge">
<title>mulle&#45;core&#45;&gt;mulle&#45;time</title>
<path fill="none" stroke="black" d="M1376.25,-89.46C1495.61,-89.87 1823.62,-86.13 2103.51,-35.8"/>
<polygon fill="black" stroke="black" points="2104.23,-39.23 2113.44,-33.99 2102.98,-32.34 2104.23,-39.23"/>
</g>
<!-- mulle&#45;unicode -->
<g id="node23" class="node">
<title>mulle&#45;unicode</title>
<g id="a_node23"><a xlink:href="https://github.com/mulle-c/mulle-unicode@*" xlink:title="mulle&#45;unicode">
<polygon fill="lightgrey" stroke="black" points="2341,-36 2225,-36 2225,0 2341,0 2341,-36"/>
<text text-anchor="middle" x="2283" y="-14.3" font-family="Times,serif" font-size="14.00">mulle&#45;unicode</text>
</a>
</g>
</g>
<!-- mulle&#45;core&#45;&gt;mulle&#45;unicode -->
<g id="edge19" class="edge">
<title>mulle&#45;core&#45;&gt;mulle&#45;unicode</title>
<path fill="none" stroke="black" d="M1376.45,-89.3C1507.26,-89.48 1889.81,-85.52 2214.59,-36.04"/>
<polygon fill="black" stroke="black" points="2215.32,-39.47 2224.67,-34.49 2214.25,-32.55 2215.32,-39.47"/>
</g>
<!-- mulle&#45;url -->
<g id="node24" class="node">
<title>mulle&#45;url</title>
<g id="a_node24"><a xlink:href="https://github.com/mulle-c/mulle-url@*" xlink:title="mulle&#45;url">
<polygon fill="lightgrey" stroke="black" points="2440.5,-36 2359.5,-36 2359.5,0 2440.5,0 2440.5,-36"/>
<text text-anchor="middle" x="2400" y="-14.3" font-family="Times,serif" font-size="14.00">mulle&#45;url</text>
</a>
</g>
</g>
<!-- mulle&#45;core&#45;&gt;mulle&#45;url -->
<g id="edge20" class="edge">
<title>mulle&#45;core&#45;&gt;mulle&#45;url</title>
<path fill="none" stroke="black" d="M1376.11,-88.29C1546.33,-85.41 2139.87,-73.02 2349.34,-35.71"/>
<polygon fill="black" stroke="black" points="2350.13,-39.12 2359.32,-33.85 2348.85,-32.24 2350.13,-39.12"/>
</g>
<!-- mulle&#45;utf -->
<g id="node25" class="node">
<title>mulle&#45;utf</title>
<g id="a_node25"><a xlink:href="https://github.com/mulle-c/mulle-utf@*" xlink:title="mulle&#45;utf">
<polygon fill="lightgrey" stroke="black" points="2539.5,-36 2458.5,-36 2458.5,0 2539.5,0 2539.5,-36"/>
<text text-anchor="middle" x="2499" y="-14.3" font-family="Times,serif" font-size="14.00">mulle&#45;utf</text>
</a>
</g>
</g>
<!-- mulle&#45;core&#45;&gt;mulle&#45;utf -->
<g id="edge21" class="edge">
<title>mulle&#45;core&#45;&gt;mulle&#45;utf</title>
<path fill="none" stroke="black" d="M1376.17,-88.57C1557.18,-86.64 2219.36,-76.97 2448.41,-35.94"/>
<polygon fill="black" stroke="black" points="2449.14,-39.36 2458.33,-34.09 2447.86,-32.48 2449.14,-39.36"/>
</g>
<!-- mulle&#45;vararg -->
<g id="node26" class="node">
<title>mulle&#45;vararg</title>
<g id="a_node26"><a xlink:href="https://github.com/mulle-c/mulle-vararg@*" xlink:title="mulle&#45;vararg">
<polygon fill="lightgrey" stroke="black" points="2666,-36 2558,-36 2558,0 2666,0 2666,-36"/>
<text text-anchor="middle" x="2612" y="-14.3" font-family="Times,serif" font-size="14.00">mulle&#45;vararg</text>
</a>
</g>
</g>
<!-- mulle&#45;core&#45;&gt;mulle&#45;vararg -->
<g id="edge22" class="edge">
<title>mulle&#45;core&#45;&gt;mulle&#45;vararg</title>
<path fill="none" stroke="black" d="M1376.17,-88.35C1567.09,-85.46 2296.18,-72.34 2547.69,-35.95"/>
<polygon fill="black" stroke="black" points="2548.5,-39.36 2557.87,-34.42 2547.46,-32.44 2548.5,-39.36"/>
</g>
</g>
</svg>
