<svg xmlns="http://www.w3.org/2000/svg" xmlns:xlink="http://www.w3.org/1999/xlink" width="828" height="260pt" viewBox="0 0 621 260"><g id="graph0" class="graph" transform="scale(1 1) rotate(0) translate(4 256)"><title>sourcetree</title><polygon fill="#fff" stroke="transparent" points="-4 4 -4 -256 617 -256 617 4 -4 4"/><g id="node1" class="node"><title>mulle-objc-runtime</title><polygon fill="#ff0" stroke="#000" points="397 -252 245 -252 245 -216 397 -216 397 -252"/><text x="321" y="-230.3" font-family="Times,serif" font-size="14" text-anchor="middle">mulle-objc-runtime</text></g><g id="node5" class="node"><title>mulle-atinit</title><polygon fill="#d3d3d3" stroke="#000" points="99.5 -180 .5 -180 .5 -144 99.5 -144 99.5 -180"/><text x="50" y="-158.3" font-family="Times,serif" font-size="14" text-anchor="middle">mulle-atinit</text></g><g id="edge8" class="edge"><title>mulle-objc-runtime-&gt;mulle-atinit</title><path fill="none" stroke="#000" d="M249.32,-215.95C210.34,-206.49 161.07,-194.24 109.32,-180.31"/><polygon fill="#000" stroke="#000" points="110.2 -176.93 99.64 -177.69 108.38 -183.68 110.2 -176.93"/></g><g id="node7" class="node"><title>mulle-concurrent</title><polygon fill="#d3d3d3" stroke="#000" points="256.5 -180 117.5 -180 117.5 -144 256.5 -144 256.5 -180"/><text x="187" y="-158.3" font-family="Times,serif" font-size="14" text-anchor="middle">mulle-concurrent</text></g><g id="edge9" class="edge"><title>mulle-objc-runtime-&gt;mulle-concurrent</title><path fill="none" stroke="#000" d="M288.22,-215.88C270.37,-206.55 248.1,-194.92 229,-184.94"/><polygon fill="#000" stroke="#000" points="230.39 -181.72 219.91 -180.19 227.15 -187.92 230.39 -181.72"/></g><g id="node8" class="node"><title>mulle-data</title><polygon fill="#d3d3d3" stroke="#000" points="367 -180 275 -180 275 -144 367 -144 367 -180"/><text x="321" y="-158.3" font-family="Times,serif" font-size="14" text-anchor="middle">mulle-data</text></g><g id="edge10" class="edge"><title>mulle-objc-runtime-&gt;mulle-data</title><path fill="none" stroke="#000" d="M321,-215.7C321,-207.98 321,-198.71 321,-190.11"/><polygon fill="#000" stroke="#000" points="324.5 -190.1 321 -180.1 317.5 -190.1 324.5 -190.1"/></g><g id="node11" class="node"><title>mulle-atexit</title><polygon fill="#d3d3d3" stroke="#000" points="487 -180 385 -180 385 -144 487 -144 487 -180"/><text x="436" y="-158.3" font-family="Times,serif" font-size="14" text-anchor="middle">mulle-atexit</text></g><g id="edge7" class="edge"><title>mulle-objc-runtime-&gt;mulle-atexit</title><path fill="none" stroke="#000" d="M349.13,-215.88C364.17,-206.72 382.87,-195.34 399.06,-185.48"/><polygon fill="#000" stroke="#000" points="401.04 -188.38 407.76 -180.19 397.4 -182.4 401.04 -188.38"/></g><g id="node12" class="node"><title>mulle-vararg</title><polygon fill="#d3d3d3" stroke="#000" points="613 -180 505 -180 505 -144 613 -144 613 -180"/><text x="559" y="-158.3" font-family="Times,serif" font-size="14" text-anchor="middle">mulle-vararg</text></g><g id="edge11" class="edge"><title>mulle-objc-runtime-&gt;mulle-vararg</title><path fill="none" stroke="#000" d="M378.92,-215.97C414.01,-205.65 458.82,-192.47 494.96,-181.83"/><polygon fill="#000" stroke="#000" points="496.3 -185.09 504.91 -178.91 494.33 -178.37 496.3 -185.09"/></g><g id="node2" class="node"><title>mulle-aba</title><polygon fill="#d3d3d3" stroke="#000" points="230 -108 144 -108 144 -72 230 -72 230 -108"/><text x="187" y="-86.3" font-family="Times,serif" font-size="14" text-anchor="middle">mulle-aba</text></g><g id="node3" class="node"><title>mulle-allocator</title><polygon fill="#d3d3d3" stroke="#000" points="245.5 -36 122.5 -36 122.5 0 245.5 0 245.5 -36"/><text x="184" y="-14.3" font-family="Times,serif" font-size="14" text-anchor="middle">mulle-allocator</text></g><g id="edge1" class="edge"><title>mulle-aba-&gt;mulle-allocator</title><path fill="none" stroke="#000" d="M186.26,-71.7C185.93,-63.98 185.53,-54.71 185.16,-46.11"/><polygon fill="#000" stroke="#000" points="188.66 -45.95 184.73 -36.1 181.66 -46.25 188.66 -45.95"/></g><g id="node4" class="node"><title>mulle-thread</title><polygon fill="#d3d3d3" stroke="#000" points="372 -36 264 -36 264 0 372 0 372 -36"/><text x="318" y="-14.3" font-family="Times,serif" font-size="14" text-anchor="middle">mulle-thread</text></g><g id="edge2" class="edge"><title>mulle-aba-&gt;mulle-thread</title><path fill="none" stroke="#000" d="M219.05,-71.88C236.49,-62.55 258.27,-50.92 276.94,-40.94"/><polygon fill="#000" stroke="#000" points="278.66 -43.99 285.83 -36.19 275.36 -37.82 278.66 -43.99"/></g><g id="node6" class="node"><title>mulle-dlfcn</title><polygon fill="#d3d3d3" stroke="#000" points="98 -108 2 -108 2 -72 98 -72 98 -108"/><text x="50" y="-86.3" font-family="Times,serif" font-size="14" text-anchor="middle">mulle-dlfcn</text></g><g id="edge3" class="edge"><title>mulle-atinit-&gt;mulle-dlfcn</title><path fill="none" stroke="#000" d="M50,-143.7C50,-135.98 50,-126.71 50,-118.11"/><polygon fill="#000" stroke="#000" points="53.5 -118.1 50 -108.1 46.5 -118.1 53.5 -118.1"/></g><g id="node10" class="node"><title>dlfcn-win32</title><polygon fill="#d3d3d3" stroke="#000" points="100 -36 0 -36 0 0 100 0 100 -36"/><text x="50" y="-14.3" font-family="Times,serif" font-size="14" text-anchor="middle">dlfcn-win32</text></g><g id="edge6" class="edge"><title>mulle-dlfcn-&gt;dlfcn-win32</title><path fill="none" stroke="#000" d="M50,-71.7C50,-63.98 50,-54.71 50,-46.11"/><polygon fill="#000" stroke="#000" points="53.5 -46.1 50 -36.1 46.5 -46.1 53.5 -46.1"/></g><g id="edge4" class="edge"><title>mulle-concurrent-&gt;mulle-aba</title><path fill="none" stroke="#000" d="M187,-143.7C187,-135.98 187,-126.71 187,-118.11"/><polygon fill="#000" stroke="#000" points="190.5 -118.1 187 -108.1 183.5 -118.1 190.5 -118.1"/></g><g id="node9" class="node"><title>src/farmhash</title><polygon fill="#d3d3d3" stroke="#000" points="376 -108 266 -108 266 -72 376 -72 376 -108"/><text x="321" y="-86.3" font-family="Times,serif" font-size="14" text-anchor="middle">src/farmhash</text></g><g id="edge5" class="edge"><title>mulle-data-&gt;src/farmhash</title><path fill="none" stroke="#000" d="M321,-143.7C321,-135.98 321,-126.71 321,-118.11"/><polygon fill="#000" stroke="#000" points="324.5 -118.1 321 -108.1 317.5 -118.1 324.5 -118.1"/></g></g></svg>