<?xml version="1.0" encoding="UTF-8" standalone="no"?>
<!DOCTYPE svg PUBLIC "-//W3C//DTD SVG 1.1//EN"
 "http://www.w3.org/Graphics/SVG/1.1/DTD/svg11.dtd">
<!-- Generated by graphviz version 2.43.0 (0)
 -->
<!-- Title: sourcetree Pages: 1 -->
<svg width="266pt" height="116pt"
 viewBox="0.00 0.00 266.00 116.00" xmlns="http://www.w3.org/2000/svg" xmlns:xlink="http://www.w3.org/1999/xlink">
<g id="graph0" class="graph" transform="scale(1 1) rotate(0) translate(4 112)">
<title>sourcetree</title>
<polygon fill="white" stroke="transparent" points="-4,4 -4,-112 262,-112 262,4 -4,4"/>
<!-- mulle&#45;objc&#45;runtime -->
<g id="node1" class="node">
<title>mulle&#45;objc&#45;runtime</title>
<polygon fill="yellow" stroke="black" points="219,-108 67,-108 67,-72 219,-72 219,-108"/>
<text text-anchor="middle" x="143" y="-86.3" font-family="Times,serif" font-size="14.00">mulle&#45;objc&#45;runtime</text>
</g>
<!-- mulle&#45;core&#45;all&#45;load -->
<g id="node2" class="node">
<title>mulle&#45;core&#45;all&#45;load</title>
<g id="a_node2"><a xlink:href="https://github.com/mulle-core/mulle-core-all-load" xlink:title="mulle&#45;core&#45;all&#45;load">
<polygon fill="lightgrey" stroke="black" points="148,-36 0,-36 0,0 148,0 148,-36"/>
<text text-anchor="middle" x="74" y="-14.3" font-family="Times,serif" font-size="14.00">mulle&#45;core&#45;all&#45;load</text>
</a>
</g>
</g>
<!-- mulle&#45;objc&#45;runtime&#45;&gt;mulle&#45;core&#45;all&#45;load -->
<g id="edge2" class="edge">
<title>mulle&#45;objc&#45;runtime&#45;&gt;mulle&#45;core&#45;all&#45;load</title>
<path fill="none" stroke="black" d="M125.94,-71.7C117.5,-63.14 107.18,-52.66 97.96,-43.3"/>
<polygon fill="black" stroke="black" points="100.37,-40.77 90.86,-36.1 95.39,-45.68 100.37,-40.77"/>
</g>
<!-- mulle&#45;core -->
<g id="node3" class="node">
<title>mulle&#45;core</title>
<g id="a_node3"><a xlink:href="https://github.com/mulle-core/mulle-core" xlink:title="mulle&#45;core">
<polygon fill="lightgrey" stroke="black" points="258,-36 166,-36 166,0 258,0 258,-36"/>
<text text-anchor="middle" x="212" y="-14.3" font-family="Times,serif" font-size="14.00">mulle&#45;core</text>
</a>
</g>
</g>
<!-- mulle&#45;objc&#45;runtime&#45;&gt;mulle&#45;core -->
<g id="edge1" class="edge">
<title>mulle&#45;objc&#45;runtime&#45;&gt;mulle&#45;core</title>
<path fill="none" stroke="black" d="M160.06,-71.7C168.5,-63.14 178.82,-52.66 188.04,-43.3"/>
<polygon fill="black" stroke="black" points="190.61,-45.68 195.14,-36.1 185.63,-40.77 190.61,-45.68"/>
</g>
</g>
</svg>
