<?xml version="1.0" encoding="UTF-8" standalone="no"?>
<!DOCTYPE svg PUBLIC "-//W3C//DTD SVG 1.1//EN"
 "http://www.w3.org/Graphics/SVG/1.1/DTD/svg11.dtd">
<!-- Generated by graphviz version 2.43.0 (0)
 -->
<!-- Title: sourcetree Pages: 1 -->
<svg width="735pt" height="116pt"
 viewBox="0.00 0.00 735.00 116.00" xmlns="http://www.w3.org/2000/svg" xmlns:xlink="http://www.w3.org/1999/xlink">
<g id="graph0" class="graph" transform="scale(1 1) rotate(0) translate(4 112)">
<title>sourcetree</title>
<polygon fill="white" stroke="transparent" points="-4,4 -4,-112 731,-112 731,4 -4,4"/>
<!-- mulle&#45;objc&#45;runtime -->
<g id="node1" class="node">
<title>mulle&#45;objc&#45;runtime</title>
<polygon fill="yellow" stroke="black" points="450,-108 298,-108 298,-72 450,-72 450,-108"/>
<text text-anchor="middle" x="374" y="-86.3" font-family="Times,serif" font-size="14.00">mulle&#45;objc&#45;runtime</text>
</g>
<!-- mulle&#45;atexit -->
<g id="node2" class="node">
<title>mulle&#45;atexit</title>
<polygon fill="lightgrey" stroke="black" points="102,-36 0,-36 0,0 102,0 102,-36"/>
<text text-anchor="middle" x="51" y="-14.3" font-family="Times,serif" font-size="14.00">mulle&#45;atexit</text>
</g>
<!-- mulle&#45;objc&#45;runtime&#45;&gt;mulle&#45;atexit -->
<g id="edge1" class="edge">
<title>mulle&#45;objc&#45;runtime&#45;&gt;mulle&#45;atexit</title>
<path fill="none" stroke="black" d="M297.98,-75.29C247.75,-65.86 180.27,-52.47 112.34,-36.24"/>
<polygon fill="black" stroke="black" points="112.86,-32.76 102.32,-33.82 111.22,-39.57 112.86,-32.76"/>
</g>
<!-- mulle&#45;atinit -->
<g id="node3" class="node">
<title>mulle&#45;atinit</title>
<polygon fill="lightgrey" stroke="black" points="219.5,-36 120.5,-36 120.5,0 219.5,0 219.5,-36"/>
<text text-anchor="middle" x="170" y="-14.3" font-family="Times,serif" font-size="14.00">mulle&#45;atinit</text>
</g>
<!-- mulle&#45;objc&#45;runtime&#45;&gt;mulle&#45;atinit -->
<g id="edge2" class="edge">
<title>mulle&#45;objc&#45;runtime&#45;&gt;mulle&#45;atinit</title>
<path fill="none" stroke="black" d="M324.36,-71.97C295.62,-62.11 259.28,-49.64 229.08,-39.27"/>
<polygon fill="black" stroke="black" points="230.11,-35.92 219.51,-35.99 227.83,-42.55 230.11,-35.92"/>
</g>
<!-- mulle&#45;concurrent -->
<g id="node4" class="node">
<title>mulle&#45;concurrent</title>
<polygon fill="lightgrey" stroke="black" points="376.5,-36 237.5,-36 237.5,0 376.5,0 376.5,-36"/>
<text text-anchor="middle" x="307" y="-14.3" font-family="Times,serif" font-size="14.00">mulle&#45;concurrent</text>
</g>
<!-- mulle&#45;objc&#45;runtime&#45;&gt;mulle&#45;concurrent -->
<g id="edge3" class="edge">
<title>mulle&#45;objc&#45;runtime&#45;&gt;mulle&#45;concurrent</title>
<path fill="none" stroke="black" d="M357.44,-71.7C349.32,-63.22 339.41,-52.86 330.53,-43.58"/>
<polygon fill="black" stroke="black" points="332.81,-40.91 323.37,-36.1 327.76,-45.75 332.81,-40.91"/>
</g>
<!-- mulle&#45;data -->
<g id="node5" class="node">
<title>mulle&#45;data</title>
<polygon fill="lightgrey" stroke="black" points="487,-36 395,-36 395,0 487,0 487,-36"/>
<text text-anchor="middle" x="441" y="-14.3" font-family="Times,serif" font-size="14.00">mulle&#45;data</text>
</g>
<!-- mulle&#45;objc&#45;runtime&#45;&gt;mulle&#45;data -->
<g id="edge4" class="edge">
<title>mulle&#45;objc&#45;runtime&#45;&gt;mulle&#45;data</title>
<path fill="none" stroke="black" d="M390.56,-71.7C398.68,-63.22 408.59,-52.86 417.47,-43.58"/>
<polygon fill="black" stroke="black" points="420.24,-45.75 424.63,-36.1 415.19,-40.91 420.24,-45.75"/>
</g>
<!-- mulle&#45;dlfcn -->
<g id="node6" class="node">
<title>mulle&#45;dlfcn</title>
<polygon fill="lightgrey" stroke="black" points="601,-36 505,-36 505,0 601,0 601,-36"/>
<text text-anchor="middle" x="553" y="-14.3" font-family="Times,serif" font-size="14.00">mulle&#45;dlfcn</text>
</g>
<!-- mulle&#45;objc&#45;runtime&#45;&gt;mulle&#45;dlfcn -->
<g id="edge5" class="edge">
<title>mulle&#45;objc&#45;runtime&#45;&gt;mulle&#45;dlfcn</title>
<path fill="none" stroke="black" d="M417.79,-71.88C442.58,-62.18 473.78,-49.98 499.96,-39.74"/>
<polygon fill="black" stroke="black" points="501.32,-42.97 509.35,-36.07 498.77,-36.45 501.32,-42.97"/>
</g>
<!-- mulle&#45;vararg -->
<g id="node7" class="node">
<title>mulle&#45;vararg</title>
<polygon fill="lightgrey" stroke="black" points="727,-36 619,-36 619,0 727,0 727,-36"/>
<text text-anchor="middle" x="673" y="-14.3" font-family="Times,serif" font-size="14.00">mulle&#45;vararg</text>
</g>
<!-- mulle&#45;objc&#45;runtime&#45;&gt;mulle&#45;vararg -->
<g id="edge6" class="edge">
<title>mulle&#45;objc&#45;runtime&#45;&gt;mulle&#45;vararg</title>
<path fill="none" stroke="black" d="M450.19,-72.75C494.07,-63.19 550.48,-50.56 608.96,-36.21"/>
<polygon fill="black" stroke="black" points="609.87,-39.59 618.74,-33.8 608.19,-32.79 609.87,-39.59"/>
</g>
</g>
</svg>
