<?xml version="1.0" encoding="UTF-8" standalone="no"?>
<!DOCTYPE svg PUBLIC "-//W3C//DTD SVG 1.1//EN"
 "http://www.w3.org/Graphics/SVG/1.1/DTD/svg11.dtd">
<!-- Generated by graphviz version 2.34.0 (20131231.1455)
 -->
<!-- Title: executable Pages: 1 -->
<svg width="920pt" height="260pt"
 viewBox="0.00 0.00 920.00 260.00" xmlns="http://www.w3.org/2000/svg" xmlns:xlink="http://www.w3.org/1999/xlink">
<g id="graph0" class="graph" transform="scale(1 1) rotate(0) translate(4 256)">
<title>executable</title>
<polygon fill="white" stroke="white" points="-4,4 -4,-256 916,-256 916,4 -4,4"/>
<!-- executable -->
<g id="node1" class="node"><title>executable</title>
<polygon fill="none" stroke="black" points="69.8488,-171 0.151216,-171 0.151216,-135 75.8488,-135 75.8488,-165 69.8488,-171"/>
<polyline fill="none" stroke="black" points="69.8488,-171 69.8488,-165 "/>
<polyline fill="none" stroke="black" points="75.8488,-165 69.8488,-165 "/>
<text text-anchor="middle" x="38" y="-147.4" font-family="Times,serif" font-size="14.00">executable</text>
</g>
<!-- shared library -->
<g id="node2" class="node"><title>shared library</title>
<polygon fill="none" stroke="black" points="199.856,-248 112.144,-248 112.144,-212 205.856,-212 205.856,-242 199.856,-248"/>
<polyline fill="none" stroke="black" points="199.856,-248 199.856,-242 "/>
<polyline fill="none" stroke="black" points="205.856,-242 199.856,-242 "/>
<text text-anchor="middle" x="159" y="-224.4" font-family="Times,serif" font-size="14.00">shared library</text>
</g>
<!-- executable&#45;&gt;shared library -->
<g id="edge10" class="edge"><title>executable&#45;&gt;shared library</title>
<path fill="none" stroke="black" d="M66.9002,-171.053C83.0461,-181.5 103.565,-194.778 121.041,-206.085"/>
<polygon fill="black" stroke="black" points="119.565,-209.299 129.862,-211.793 123.368,-203.422 119.565,-209.299"/>
</g>
<!-- a.o -->
<g id="node3" class="node"><title>a.o</title>
<polygon fill="none" stroke="black" points="290,-198 242,-198 242,-162 296,-162 296,-192 290,-198"/>
<polyline fill="none" stroke="black" points="290,-198 290,-192 "/>
<polyline fill="none" stroke="black" points="296,-192 290,-192 "/>
<text text-anchor="middle" x="269" y="-174.4" font-family="Times,serif" font-size="14.00">a.o</text>
</g>
<!-- executable&#45;&gt;a.o -->
<g id="edge1" class="edge"><title>executable&#45;&gt;a.o</title>
<path fill="none" stroke="black" d="M76.0473,-157.368C118.966,-162.428 189.215,-170.711 231.779,-175.729"/>
<polygon fill="black" stroke="black" points="231.371,-179.205 241.712,-176.901 232.191,-172.254 231.371,-179.205"/>
</g>
<!-- b.o -->
<g id="node4" class="node"><title>b.o</title>
<polygon fill="none" stroke="black" points="290,-144 242,-144 242,-108 296,-108 296,-138 290,-144"/>
<polyline fill="none" stroke="black" points="290,-144 290,-138 "/>
<polyline fill="none" stroke="black" points="296,-138 290,-138 "/>
<text text-anchor="middle" x="269" y="-120.4" font-family="Times,serif" font-size="14.00">b.o</text>
</g>
<!-- executable&#45;&gt;b.o -->
<g id="edge4" class="edge"><title>executable&#45;&gt;b.o</title>
<path fill="none" stroke="black" d="M76.0473,-148.632C118.966,-143.572 189.215,-135.289 231.779,-130.271"/>
<polygon fill="black" stroke="black" points="232.191,-133.746 241.712,-129.099 231.371,-126.795 232.191,-133.746"/>
</g>
<!-- main.o -->
<g id="node6" class="node"><title>main.o</title>
<polygon fill="none" stroke="black" points="290.495,-90 241.505,-90 241.505,-54 296.495,-54 296.495,-84 290.495,-90"/>
<polyline fill="none" stroke="black" points="290.495,-90 290.495,-84 "/>
<polyline fill="none" stroke="black" points="296.495,-84 290.495,-84 "/>
<text text-anchor="middle" x="269" y="-66.4" font-family="Times,serif" font-size="14.00">main.o</text>
</g>
<!-- executable&#45;&gt;main.o -->
<g id="edge7" class="edge"><title>executable&#45;&gt;main.o</title>
<path fill="none" stroke="black" d="M76.0473,-139.896C119.056,-124.683 189.513,-99.7619 232.049,-84.7164"/>
<polygon fill="black" stroke="black" points="233.452,-87.9328 241.712,-81.2984 231.117,-81.3334 233.452,-87.9328"/>
</g>
<!-- c.o -->
<g id="node5" class="node"><title>c.o</title>
<polygon fill="none" stroke="black" points="290,-252 242,-252 242,-216 296,-216 296,-246 290,-252"/>
<polyline fill="none" stroke="black" points="290,-252 290,-246 "/>
<polyline fill="none" stroke="black" points="296,-246 290,-246 "/>
<text text-anchor="middle" x="269" y="-228.4" font-family="Times,serif" font-size="14.00">c.o</text>
</g>
<!-- shared library&#45;&gt;c.o -->
<g id="edge11" class="edge"><title>shared library&#45;&gt;c.o</title>
<path fill="none" stroke="black" d="M205.802,-231.696C214.452,-232.017 223.39,-232.348 231.7,-232.656"/>
<polygon fill="black" stroke="black" points="231.697,-236.158 241.82,-233.03 231.956,-229.163 231.697,-236.158"/>
</g>
<!-- __attribute_constructor( a.o) -->
<g id="node7" class="node"><title>__attribute_constructor( a.o)</title>
<polygon fill="none" stroke="black" points="519.166,-198 342.834,-198 342.834,-162 519.166,-162 519.166,-198"/>
<text text-anchor="middle" x="431" y="-174.4" font-family="Times,serif" font-size="14.00">__attribute_constructor( a.o)</text>
</g>
<!-- a.o&#45;&gt;__attribute_constructor( a.o) -->
<g id="edge2" class="edge"><title>a.o&#45;&gt;__attribute_constructor( a.o)</title>
<path fill="none" stroke="black" d="M296.063,-180C306.436,-180 319.073,-180 332.396,-180"/>
<polygon fill="black" stroke="black" points="332.691,-183.5 342.691,-180 332.691,-176.5 332.691,-183.5"/>
</g>
<!-- __attribute_constructor( b.o) -->
<g id="node8" class="node"><title>__attribute_constructor( b.o)</title>
<polygon fill="none" stroke="black" points="519.452,-144 342.548,-144 342.548,-108 519.452,-108 519.452,-144"/>
<text text-anchor="middle" x="431" y="-120.4" font-family="Times,serif" font-size="14.00">__attribute_constructor( b.o)</text>
</g>
<!-- b.o&#45;&gt;__attribute_constructor( b.o) -->
<g id="edge5" class="edge"><title>b.o&#45;&gt;__attribute_constructor( b.o)</title>
<path fill="none" stroke="black" d="M296.063,-126C306.365,-126 318.901,-126 332.124,-126"/>
<polygon fill="black" stroke="black" points="332.344,-129.5 342.344,-126 332.344,-122.5 332.344,-129.5"/>
</g>
<!-- __attribute_constructor( c.o) -->
<g id="node9" class="node"><title>__attribute_constructor( c.o)</title>
<polygon fill="none" stroke="black" points="519.166,-252 342.834,-252 342.834,-216 519.166,-216 519.166,-252"/>
<text text-anchor="middle" x="431" y="-228.4" font-family="Times,serif" font-size="14.00">__attribute_constructor( c.o)</text>
</g>
<!-- c.o&#45;&gt;__attribute_constructor( c.o) -->
<g id="edge12" class="edge"><title>c.o&#45;&gt;__attribute_constructor( c.o)</title>
<path fill="none" stroke="black" d="M296.063,-234C306.436,-234 319.073,-234 332.396,-234"/>
<polygon fill="black" stroke="black" points="332.691,-237.5 342.691,-234 332.691,-230.5 332.691,-237.5"/>
</g>
<!-- __attribute_constructor( main.o) -->
<g id="node12" class="node"><title>__attribute_constructor( main.o)</title>
<polygon fill="none" stroke="black" points="529.945,-90 332.055,-90 332.055,-54 529.945,-54 529.945,-90"/>
<text text-anchor="middle" x="431" y="-66.4" font-family="Times,serif" font-size="14.00">__attribute_constructor( main.o)</text>
</g>
<!-- main.o&#45;&gt;__attribute_constructor( main.o) -->
<g id="edge8" class="edge"><title>main.o&#45;&gt;__attribute_constructor( main.o)</title>
<path fill="none" stroke="black" d="M296.421,-72C303.917,-72 312.574,-72 321.806,-72"/>
<polygon fill="black" stroke="black" points="322.021,-75.5001 332.021,-72 322.021,-68.5001 322.021,-75.5001"/>
</g>
<!-- int main( argc, argv) -->
<g id="node15" class="node"><title>int main( argc, argv)</title>
<polygon fill="none" stroke="black" points="496.071,-36 365.929,-36 365.929,-0 496.071,-0 496.071,-36"/>
<text text-anchor="middle" x="431" y="-12.4" font-family="Times,serif" font-size="14.00">int main( argc, argv)</text>
</g>
<!-- main.o&#45;&gt;int main( argc, argv) -->
<g id="edge14" class="edge"><title>main.o&#45;&gt;int main( argc, argv)</title>
<path fill="none" stroke="black" d="M296.524,-59.4624C307.382,-54.5904 320.156,-49.1867 332,-45 339.773,-42.2522 347.974,-39.6081 356.186,-37.1213"/>
<polygon fill="black" stroke="black" points="357.209,-40.4687 365.807,-34.2776 355.225,-33.7557 357.209,-40.4687"/>
</g>
<!-- mulle_objc_loadinfo_unfailing_enqueue( &amp;a.loadinfo) -->
<g id="node10" class="node"><title>mulle_objc_loadinfo_unfailing_enqueue( &amp;a.loadinfo)</title>
<polygon fill="none" stroke="black" points="900.911,-198 577.089,-198 577.089,-162 900.911,-162 900.911,-198"/>
<text text-anchor="middle" x="739" y="-174.4" font-family="Times,serif" font-size="14.00">mulle_objc_loadinfo_unfailing_enqueue( &amp;a.loadinfo)</text>
</g>
<!-- __attribute_constructor( a.o)&#45;&gt;mulle_objc_loadinfo_unfailing_enqueue( &amp;a.loadinfo) -->
<g id="edge3" class="edge"><title>__attribute_constructor( a.o)&#45;&gt;mulle_objc_loadinfo_unfailing_enqueue( &amp;a.loadinfo)</title>
<path fill="none" stroke="black" d="M519.278,-180C534.272,-180 550.307,-180 566.624,-180"/>
<polygon fill="black" stroke="black" points="566.814,-183.5 576.814,-180 566.814,-176.5 566.814,-183.5"/>
</g>
<!-- mulle_objc_loadinfo_unfailing_enqueue( &amp;b.loadinfo) -->
<g id="node11" class="node"><title>mulle_objc_loadinfo_unfailing_enqueue( &amp;b.loadinfo)</title>
<polygon fill="none" stroke="black" points="901.197,-144 576.803,-144 576.803,-108 901.197,-108 901.197,-144"/>
<text text-anchor="middle" x="739" y="-120.4" font-family="Times,serif" font-size="14.00">mulle_objc_loadinfo_unfailing_enqueue( &amp;b.loadinfo)</text>
</g>
<!-- __attribute_constructor( b.o)&#45;&gt;mulle_objc_loadinfo_unfailing_enqueue( &amp;b.loadinfo) -->
<g id="edge6" class="edge"><title>__attribute_constructor( b.o)&#45;&gt;mulle_objc_loadinfo_unfailing_enqueue( &amp;b.loadinfo)</title>
<path fill="none" stroke="black" d="M519.687,-126C534.532,-126 550.386,-126 566.519,-126"/>
<polygon fill="black" stroke="black" points="566.593,-129.5 576.593,-126 566.593,-122.5 566.593,-129.5"/>
</g>
<!-- mulle_objc_loadinfo_unfailing_enqueue( &amp;c.loadinfo) -->
<g id="node14" class="node"><title>mulle_objc_loadinfo_unfailing_enqueue( &amp;c.loadinfo)</title>
<polygon fill="none" stroke="black" points="900.911,-252 577.089,-252 577.089,-216 900.911,-216 900.911,-252"/>
<text text-anchor="middle" x="739" y="-228.4" font-family="Times,serif" font-size="14.00">mulle_objc_loadinfo_unfailing_enqueue( &amp;c.loadinfo)</text>
</g>
<!-- __attribute_constructor( c.o)&#45;&gt;mulle_objc_loadinfo_unfailing_enqueue( &amp;c.loadinfo) -->
<g id="edge13" class="edge"><title>__attribute_constructor( c.o)&#45;&gt;mulle_objc_loadinfo_unfailing_enqueue( &amp;c.loadinfo)</title>
<path fill="none" stroke="black" d="M519.278,-234C534.272,-234 550.307,-234 566.624,-234"/>
<polygon fill="black" stroke="black" points="566.814,-237.5 576.814,-234 566.814,-230.5 566.814,-237.5"/>
</g>
<!-- mulle_objc_loadinfo_unfailing_enqueue( &amp;main.loadinfo) -->
<g id="node13" class="node"><title>mulle_objc_loadinfo_unfailing_enqueue( &amp;main.loadinfo)</title>
<polygon fill="none" stroke="black" points="911.691,-90 566.309,-90 566.309,-54 911.691,-54 911.691,-90"/>
<text text-anchor="middle" x="739" y="-66.4" font-family="Times,serif" font-size="14.00">mulle_objc_loadinfo_unfailing_enqueue( &amp;main.loadinfo)</text>
</g>
<!-- __attribute_constructor( main.o)&#45;&gt;mulle_objc_loadinfo_unfailing_enqueue( &amp;main.loadinfo) -->
<g id="edge9" class="edge"><title>__attribute_constructor( main.o)&#45;&gt;mulle_objc_loadinfo_unfailing_enqueue( &amp;main.loadinfo)</title>
<path fill="none" stroke="black" d="M530.083,-72C538.529,-72 547.233,-72 556.07,-72"/>
<polygon fill="black" stroke="black" points="556.098,-75.5001 566.098,-72 556.098,-68.5001 556.098,-75.5001"/>
</g>
<!-- multithreaded [NSBundle load] calls -->
<g id="node16" class="node"><title>multithreaded [NSBundle load] calls</title>
<polygon fill="none" stroke="black" points="849.673,-36 628.327,-36 628.327,-0 849.673,-0 849.673,-36"/>
<text text-anchor="middle" x="739" y="-12.4" font-family="Times,serif" font-size="14.00">multithreaded [NSBundle load] calls</text>
</g>
<!-- int main( argc, argv)&#45;&gt;multithreaded [NSBundle load] calls -->
<g id="edge15" class="edge"><title>int main( argc, argv)&#45;&gt;multithreaded [NSBundle load] calls</title>
<path fill="none" stroke="black" d="M496.148,-18C531.442,-18 576.391,-18 617.938,-18"/>
<polygon fill="black" stroke="black" points="618.138,-21.5001 628.138,-18 618.138,-14.5001 618.138,-21.5001"/>
</g>
</g>
</svg>
