<?xml version="1.0" encoding="UTF-8" standalone="no"?>
<!DOCTYPE svg PUBLIC "-//W3C//DTD SVG 1.1//EN"
 "http://www.w3.org/Graphics/SVG/1.1/DTD/svg11.dtd">
<!-- Generated by graphviz version 2.38.0 (20140413.2041)
 -->
<!-- Title: loading Pages: 1 -->
<svg width="660pt" height="693pt"
 viewBox="0.00 0.00 659.54 693.00" xmlns="http://www.w3.org/2000/svg" xmlns:xlink="http://www.w3.org/1999/xlink">
<g id="graph0" class="graph" transform="scale(1 1) rotate(0) translate(4 689)">
<title>loading</title>
<polygon fill="white" stroke="none" points="-4,4 -4,-689 655.544,-689 655.544,4 -4,4"/>
<!-- queue of loadclasses and loadcategories -->
<g id="node1" class="node"><title>queue of loadclasses and loadcategories</title>
<polygon fill="none" stroke="blue" stroke-width="3" points="475.632,-685 236.368,-685 236.368,-649 475.632,-649 475.632,-685"/>
<text text-anchor="middle" x="356" y="-662.8" font-family="Times,serif" font-size="14.00">queue of loadclasses and loadcategories</text>
</g>
<!-- next loadclass -->
<g id="node2" class="node"><title>next loadclass</title>
<polygon fill="none" stroke="black" stroke-width="3" points="403.421,-599 308.579,-599 308.579,-563 403.421,-563 403.421,-599"/>
<text text-anchor="middle" x="356" y="-576.8" font-family="Times,serif" font-size="14.00">next loadclass</text>
</g>
<!-- queue of loadclasses and loadcategories&#45;&gt;next loadclass -->
<g id="edge1" class="edge"><title>queue of loadclasses and loadcategories&#45;&gt;next loadclass</title>
<path fill="none" stroke="black" d="M356,-648.595C356,-637.257 356,-622.227 356,-609.315"/>
<polygon fill="black" stroke="black" points="359.5,-609.095 356,-599.095 352.5,-609.095 359.5,-609.095"/>
<text text-anchor="middle" x="388.269" y="-619.8" font-family="Times,serif" font-size="14.00"> has classes</text>
</g>
<!-- next loadcategory -->
<g id="node3" class="node"><title>next loadcategory</title>
<polygon fill="none" stroke="black" stroke-width="3" points="262.9,-599 147.1,-599 147.1,-563 262.9,-563 262.9,-599"/>
<text text-anchor="middle" x="205" y="-576.8" font-family="Times,serif" font-size="14.00">next loadcategory</text>
</g>
<!-- queue of loadclasses and loadcategories&#45;&gt;next loadcategory -->
<g id="edge2" class="edge"><title>queue of loadclasses and loadcategories&#45;&gt;next loadcategory</title>
<path fill="none" stroke="black" d="M307.403,-648.931C294.778,-643.797 281.412,-637.719 269.593,-631 256.819,-623.738 243.722,-614.251 232.69,-605.561"/>
<polygon fill="black" stroke="black" points="234.679,-602.669 224.696,-599.121 230.288,-608.12 234.679,-602.669"/>
<text text-anchor="middle" x="311.204" y="-619.8" font-family="Times,serif" font-size="14.00"> has categories</text>
</g>
<!-- run +load queue -->
<g id="node4" class="node"><title>run +load queue</title>
<polygon fill="none" stroke="red" stroke-width="3" points="651.589,-599 544.411,-599 544.411,-563 651.589,-563 651.589,-599"/>
<text text-anchor="middle" x="598" y="-576.8" font-family="Times,serif" font-size="14.00">run +load queue</text>
</g>
<!-- queue of loadclasses and loadcategories&#45;&gt;run +load queue -->
<g id="edge3" class="edge"><title>queue of loadclasses and loadcategories&#45;&gt;run +load queue</title>
<path fill="none" stroke="black" d="M475.545,-648.985C494.185,-644.342 512.914,-638.456 530,-631 544.488,-624.678 558.925,-614.898 570.745,-605.733"/>
<polygon fill="black" stroke="black" points="573.245,-608.215 578.853,-599.227 568.863,-602.756 573.245,-608.215"/>
<text text-anchor="middle" x="575.997" y="-619.8" font-family="Times,serif" font-size="14.00"> empty </text>
</g>
<!-- superclass missing -->
<g id="node5" class="node"><title>superclass missing</title>
<polygon fill="none" stroke="black" points="416.104,-440 295.896,-440 295.896,-404 416.104,-404 416.104,-440"/>
<text text-anchor="middle" x="356" y="-417.8" font-family="Times,serif" font-size="14.00">superclass missing</text>
</g>
<!-- next loadclass&#45;&gt;superclass missing -->
<g id="edge4" class="edge"><title>next loadclass&#45;&gt;superclass missing</title>
<path fill="none" stroke="black" d="M356,-562.899C356,-535.766 356,-482.614 356,-450.207"/>
<polygon fill="black" stroke="black" points="359.5,-450.08 356,-440.08 352.5,-450.08 359.5,-450.08"/>
</g>
<!-- .superclass missing -->
<g id="node12" class="node"><title>.superclass missing</title>
<polygon fill="none" stroke="black" points="213.104,-526 88.8964,-526 88.8964,-490 213.104,-490 213.104,-526"/>
<text text-anchor="middle" x="151" y="-503.8" font-family="Times,serif" font-size="14.00">.superclass missing</text>
</g>
<!-- next loadcategory&#45;&gt;.superclass missing -->
<g id="edge14" class="edge"><title>next loadcategory&#45;&gt;.superclass missing</title>
<path fill="none" stroke="black" d="M191.928,-562.813C185.362,-554.179 177.281,-543.555 170.04,-534.034"/>
<polygon fill="black" stroke="black" points="172.791,-531.87 163.952,-526.029 167.219,-536.107 172.791,-531.87"/>
</g>
<!-- add to waitqueue for classid -->
<g id="node6" class="node"><title>add to waitqueue for classid</title>
<polygon fill="none" stroke="blue" stroke-width="3" points="210.563,-36 37.4375,-36 37.4375,-0 210.563,-0 210.563,-36"/>
<text text-anchor="middle" x="124" y="-13.8" font-family="Times,serif" font-size="14.00">add to waitqueue for classid</text>
</g>
<!-- superclass missing&#45;&gt;add to waitqueue for classid -->
<g id="edge5" class="edge"><title>superclass missing&#45;&gt;add to waitqueue for classid</title>
<path fill="none" stroke="black" d="M352.599,-403.943C349.923,-390.413 346.136,-371.013 343,-354 331.551,-291.882 329.402,-276.225 318.552,-214 307.625,-151.336 335.839,-120.914 294,-73 275.225,-51.4983 247.929,-38.4798 220.683,-30.623"/>
<polygon fill="black" stroke="black" points="221.227,-27.146 210.664,-27.9558 219.427,-33.9105 221.227,-27.146"/>
<text text-anchor="middle" x="332.224" y="-202.8" font-family="Times,serif" font-size="14.00">YES</text>
</g>
<!-- protocolclass missing -->
<g id="node7" class="node"><title>protocolclass missing</title>
<polygon fill="none" stroke="black" points="488.435,-354 351.565,-354 351.565,-318 488.435,-318 488.435,-354"/>
<text text-anchor="middle" x="420" y="-331.8" font-family="Times,serif" font-size="14.00">protocolclass missing</text>
</g>
<!-- superclass missing&#45;&gt;protocolclass missing -->
<g id="edge6" class="edge"><title>superclass missing&#45;&gt;protocolclass missing</title>
<path fill="none" stroke="black" d="M369.261,-403.595C378.331,-391.69 390.503,-375.715 400.651,-362.395"/>
<polygon fill="black" stroke="black" points="403.699,-364.171 406.975,-354.095 398.131,-359.928 403.699,-364.171"/>
<text text-anchor="middle" x="402.11" y="-374.8" font-family="Times,serif" font-size="14.00">NO</text>
</g>
<!-- add to waitqueue for classid&#45;&gt;queue of loadclasses and loadcategories -->
<g id="edge13" class="edge"><title>add to waitqueue for classid&#45;&gt;queue of loadclasses and loadcategories</title>
<path fill="none" stroke="black" d="M47.2328,-36.0353C21.8655,-46.5418 0,-63.3325 0,-90 0,-582 0,-582 0,-582 0,-630.013 124.21,-650.613 225.893,-659.433"/>
<polygon fill="black" stroke="black" points="225.714,-662.93 235.971,-660.275 226.297,-655.954 225.714,-662.93"/>
</g>
<!-- protocolclass missing&#45;&gt;add to waitqueue for classid -->
<g id="edge7" class="edge"><title>protocolclass missing&#45;&gt;add to waitqueue for classid</title>
<path fill="none" stroke="black" d="M397.632,-317.933C380.223,-302.549 359,-278.215 359,-251 359,-251 359,-251 359,-90 359,-68.5927 345.71,-64.4028 327,-54 294.996,-36.2053 256.118,-27.0461 220.984,-22.4613"/>
<polygon fill="black" stroke="black" points="221.044,-18.9437 210.7,-21.2334 220.214,-25.8943 221.044,-18.9437"/>
<text text-anchor="middle" x="372.224" y="-159.8" font-family="Times,serif" font-size="14.00">YES</text>
</g>
<!-- setup class -->
<g id="node8" class="node"><title>setup class</title>
<polygon fill="none" stroke="black" points="470.266,-268 393.734,-268 393.734,-232 470.266,-232 470.266,-268"/>
<text text-anchor="middle" x="432" y="-245.8" font-family="Times,serif" font-size="14.00">setup class</text>
</g>
<!-- protocolclass missing&#45;&gt;setup class -->
<g id="edge8" class="edge"><title>protocolclass missing&#45;&gt;setup class</title>
<path fill="none" stroke="black" d="M422.486,-317.595C424.106,-306.257 426.253,-291.227 428.098,-278.315"/>
<polygon fill="black" stroke="black" points="431.608,-278.49 429.558,-268.095 424.679,-277.5 431.608,-278.49"/>
<text text-anchor="middle" x="437.11" y="-288.8" font-family="Times,serif" font-size="14.00">NO</text>
</g>
<!-- queue +load -->
<g id="node9" class="node"><title>queue +load</title>
<polygon fill="none" stroke="red" stroke-width="3" points="488.427,-182 403.573,-182 403.573,-146 488.427,-146 488.427,-182"/>
<text text-anchor="middle" x="446" y="-159.8" font-family="Times,serif" font-size="14.00">queue +load</text>
</g>
<!-- setup class&#45;&gt;queue +load -->
<g id="edge9" class="edge"><title>setup class&#45;&gt;queue +load</title>
<path fill="none" stroke="black" d="M434.901,-231.595C436.79,-220.257 439.295,-205.227 441.447,-192.315"/>
<polygon fill="black" stroke="black" points="444.959,-192.535 443.151,-182.095 438.054,-191.384 444.959,-192.535"/>
</g>
<!-- add class -->
<g id="node10" class="node"><title>add class</title>
<polygon fill="none" stroke="black" points="479.428,-109 412.572,-109 412.572,-73 479.428,-73 479.428,-109"/>
<text text-anchor="middle" x="446" y="-86.8" font-family="Times,serif" font-size="14.00">add class</text>
</g>
<!-- queue +load&#45;&gt;add class -->
<g id="edge10" class="edge"><title>queue +load&#45;&gt;add class</title>
<path fill="none" stroke="black" d="M446,-145.813C446,-137.789 446,-128.047 446,-119.069"/>
<polygon fill="black" stroke="black" points="449.5,-119.029 446,-109.029 442.5,-119.029 449.5,-119.029"/>
</g>
<!-- run waitqueue for classid -->
<g id="node11" class="node"><title>run waitqueue for classid</title>
<polygon fill="none" stroke="blue" stroke-width="3" points="524.621,-36 367.379,-36 367.379,-0 524.621,-0 524.621,-36"/>
<text text-anchor="middle" x="446" y="-13.8" font-family="Times,serif" font-size="14.00">run waitqueue for classid</text>
</g>
<!-- add class&#45;&gt;run waitqueue for classid -->
<g id="edge11" class="edge"><title>add class&#45;&gt;run waitqueue for classid</title>
<path fill="none" stroke="black" d="M446,-72.8129C446,-64.7895 446,-55.0475 446,-46.0691"/>
<polygon fill="black" stroke="black" points="449.5,-46.0288 446,-36.0288 442.5,-46.0289 449.5,-46.0288"/>
</g>
<!-- run waitqueue for classid&#45;&gt;queue of loadclasses and loadcategories -->
<g id="edge12" class="edge"><title>run waitqueue for classid&#45;&gt;queue of loadclasses and loadcategories</title>
<path fill="none" stroke="black" d="M478.541,-36.2021C496.821,-48.4391 516,-66.8048 516,-90 516,-582 516,-582 516,-582 516,-613.275 491.738,-632.93 462.11,-645.273"/>
<polygon fill="black" stroke="black" points="460.837,-642.012 452.764,-648.873 463.354,-648.545 460.837,-642.012"/>
</g>
<!-- .superclass missing&#45;&gt;add to waitqueue for classid -->
<g id="edge15" class="edge"><title>.superclass missing&#45;&gt;add to waitqueue for classid</title>
<path fill="none" stroke="black" d="M103.415,-489.861C75.6338,-476.472 46,-454.749 46,-423 46,-423 46,-423 46,-90 46,-69.5725 60.8112,-53.466 77.5253,-41.7936"/>
<polygon fill="black" stroke="black" points="79.8602,-44.4528 86.3708,-36.0944 76.0689,-38.5684 79.8602,-44.4528"/>
<text text-anchor="middle" x="59.2241" y="-245.8" font-family="Times,serif" font-size="14.00">YES</text>
</g>
<!-- .protocolclass missing -->
<g id="node13" class="node"><title>.protocolclass missing</title>
<polygon fill="none" stroke="black" points="221.435,-440 80.5648,-440 80.5648,-404 221.435,-404 221.435,-440"/>
<text text-anchor="middle" x="151" y="-417.8" font-family="Times,serif" font-size="14.00">.protocolclass missing</text>
</g>
<!-- .superclass missing&#45;&gt;.protocolclass missing -->
<g id="edge16" class="edge"><title>.superclass missing&#45;&gt;.protocolclass missing</title>
<path fill="none" stroke="black" d="M151,-489.595C151,-478.257 151,-463.227 151,-450.315"/>
<polygon fill="black" stroke="black" points="154.5,-450.095 151,-440.095 147.5,-450.095 154.5,-450.095"/>
<text text-anchor="middle" x="161.11" y="-460.8" font-family="Times,serif" font-size="14.00">NO</text>
</g>
<!-- .protocolclass missing&#45;&gt;add to waitqueue for classid -->
<g id="edge17" class="edge"><title>.protocolclass missing&#45;&gt;add to waitqueue for classid</title>
<path fill="none" stroke="black" d="M134.26,-403.906C123.085,-391.264 109.323,-373.009 103,-354 82.5159,-292.415 100,-272.903 100,-208 100,-208 100,-208 100,-90 100,-74.7582 105.025,-58.5991 110.477,-45.5535"/>
<polygon fill="black" stroke="black" points="113.75,-46.8075 114.652,-36.2512 107.364,-43.9409 113.75,-46.8075"/>
<text text-anchor="middle" x="113.224" y="-202.8" font-family="Times,serif" font-size="14.00">YES</text>
</g>
<!-- .categoryDependency missing -->
<g id="node14" class="node"><title>.categoryDependency missing</title>
<polygon fill="none" stroke="black" points="296.225,-354 111.775,-354 111.775,-318 296.225,-318 296.225,-354"/>
<text text-anchor="middle" x="204" y="-331.8" font-family="Times,serif" font-size="14.00">.categoryDependency missing</text>
</g>
<!-- .protocolclass missing&#45;&gt;.categoryDependency missing -->
<g id="edge18" class="edge"><title>.protocolclass missing&#45;&gt;.categoryDependency missing</title>
<path fill="none" stroke="black" d="M161.982,-403.595C169.421,-391.804 179.381,-376.019 187.736,-362.776"/>
<polygon fill="black" stroke="black" points="190.838,-364.42 193.214,-354.095 184.918,-360.685 190.838,-364.42"/>
<text text-anchor="middle" x="191.11" y="-374.8" font-family="Times,serif" font-size="14.00">NO</text>
</g>
<!-- .categoryDependency missing&#45;&gt;add to waitqueue for classid -->
<g id="edge19" class="edge"><title>.categoryDependency missing&#45;&gt;add to waitqueue for classid</title>
<path fill="none" stroke="black" d="M184.144,-317.792C168.39,-302.141 149,-277.496 149,-251 149,-251 149,-251 149,-90 149,-74.6918 143.766,-58.5271 138.087,-45.495"/>
<polygon fill="black" stroke="black" points="141.148,-43.778 133.737,-36.2059 134.808,-46.7465 141.148,-43.778"/>
<text text-anchor="middle" x="162.224" y="-159.8" font-family="Times,serif" font-size="14.00">YES</text>
</g>
<!-- setup category -->
<g id="node15" class="node"><title>setup category</title>
<polygon fill="none" stroke="black" points="278.745,-268 181.255,-268 181.255,-232 278.745,-232 278.745,-268"/>
<text text-anchor="middle" x="230" y="-245.8" font-family="Times,serif" font-size="14.00">setup category</text>
</g>
<!-- .categoryDependency missing&#45;&gt;setup category -->
<g id="edge20" class="edge"><title>.categoryDependency missing&#45;&gt;setup category</title>
<path fill="none" stroke="black" d="M209.387,-317.595C212.932,-306.144 217.642,-290.926 221.665,-277.929"/>
<polygon fill="black" stroke="black" points="225.095,-278.683 224.709,-268.095 218.408,-276.613 225.095,-278.683"/>
<text text-anchor="middle" x="229.11" y="-288.8" font-family="Times,serif" font-size="14.00">NO</text>
</g>
<!-- .queue +load -->
<g id="node16" class="node"><title>.queue +load</title>
<polygon fill="none" stroke="red" stroke-width="3" points="283.428,-182 194.572,-182 194.572,-146 283.428,-146 283.428,-182"/>
<text text-anchor="middle" x="239" y="-159.8" font-family="Times,serif" font-size="14.00">.queue +load</text>
</g>
<!-- setup category&#45;&gt;.queue +load -->
<g id="edge21" class="edge"><title>setup category&#45;&gt;.queue +load</title>
<path fill="none" stroke="black" d="M231.865,-231.595C233.08,-220.257 234.69,-205.227 236.073,-192.315"/>
<polygon fill="black" stroke="black" points="239.583,-192.411 237.168,-182.095 232.623,-191.665 239.583,-192.411"/>
</g>
<!-- add category -->
<g id="node17" class="node"><title>add category</title>
<polygon fill="none" stroke="black" points="284.907,-109 197.093,-109 197.093,-73 284.907,-73 284.907,-109"/>
<text text-anchor="middle" x="241" y="-86.8" font-family="Times,serif" font-size="14.00">add category</text>
</g>
<!-- .queue +load&#45;&gt;add category -->
<g id="edge22" class="edge"><title>.queue +load&#45;&gt;add category</title>
<path fill="none" stroke="black" d="M239.484,-145.813C239.71,-137.789 239.985,-128.047 240.237,-119.069"/>
<polygon fill="black" stroke="black" points="243.737,-119.123 240.52,-109.029 236.74,-118.926 243.737,-119.123"/>
</g>
<!-- add category&#45;&gt;run waitqueue for classid -->
<g id="edge23" class="edge"><title>add category&#45;&gt;run waitqueue for classid</title>
<path fill="none" stroke="black" d="M284.978,-74.7687C314.724,-64.4663 354.36,-50.7387 386.863,-39.4815"/>
<polygon fill="black" stroke="black" points="388.399,-42.6537 396.703,-36.0737 386.108,-36.0392 388.399,-42.6537"/>
</g>
</g>
</svg>
