<svg xmlns="http://www.w3.org/2000/svg" xmlns:xlink="http://www.w3.org/1999/xlink" width="395pt" height="607pt" viewBox="0 0 395.28 607"><g id="graph0" class="graph" transform="scale(1 1) rotate(0) translate(4 603)"><title>load_loop</title><polygon fill="#fff" stroke="none" points="-4 4 -4 -603 391.281 -603 391.281 4 -4 4"/><g id="node1" class="node"><title>list of loadclasses and loadcategories</title><polygon fill="none" stroke="#000" points="382.652 -599 160.01 -599 160.01 -563 382.652 -563 382.652 -599"/><text x="271.331" y="-576.8" font-family="Times,serif" font-size="14" text-anchor="middle">list of loadclasses and loadcategories</text></g><g id="node2" class="node"><title>next loadclass</title><polygon fill="none" stroke="#000" points="253.752 -513 158.91 -513 158.91 -477 253.752 -477 253.752 -513"/><text x="206.331" y="-490.8" font-family="Times,serif" font-size="14" text-anchor="middle">next loadclass</text></g><g id="edge1" class="edge"><title>list of loadclasses and loadcategories-&gt;next loadclass</title><path fill="none" stroke="#000" d="M246.607,-562.818C240.257,-557.606 233.81,-551.517 228.793,-545 223.655,-538.326 219.354,-530.289 215.936,-522.671"/><polygon fill="#000" stroke="#000" points="219.147 -521.277 212.082 -513.381 212.681 -523.959 219.147 -521.277"/><text x="261.6" y="-533.8" font-family="Times,serif" font-size="14" text-anchor="middle">has classes</text></g><g id="node3" class="node"><title>next loadcategory</title><polygon fill="none" stroke="#000" points="387.231 -513 271.431 -513 271.431 -477 387.231 -477 387.231 -513"/><text x="329.331" y="-490.8" font-family="Times,serif" font-size="14" text-anchor="middle">next loadcategory</text></g><g id="edge2" class="edge"><title>list of loadclasses and loadcategories-&gt;next loadcategory</title><path fill="none" stroke="#000" d="M283.349,-562.595C291.569,-550.69 302.599,-534.715 311.796,-521.395"/><polygon fill="#000" stroke="#000" points="314.725 -523.313 317.527 -513.095 308.965 -519.335 314.725 -523.313"/><text x="345.535" y="-533.8" font-family="Times,serif" font-size="14" text-anchor="middle">has categories</text></g><g id="node4" class="node"><title>superclass missing</title><polygon fill="none" stroke="#000" points="176.435 -440 56.227 -440 56.227 -404 176.435 -404 176.435 -440"/><text x="116.331" y="-417.8" font-family="Times,serif" font-size="14" text-anchor="middle">superclass missing</text></g><g id="edge3" class="edge"><title>next loadclass-&gt;superclass missing</title><path fill="none" stroke="#000" d="M184.545,-476.813C172.937,-467.656 158.492,-456.26 145.886,-446.316"/><polygon fill="#000" stroke="#000" points="147.936 -443.475 137.917 -440.029 143.6 -448.97 147.936 -443.475"/></g><g id="node11" class="node"><title>...</title><polygon fill="none" stroke="#000" points="356.331 -440 302.331 -440 302.331 -404 356.331 -404 356.331 -440"/><text x="329.331" y="-417.8" font-family="Times,serif" font-size="14" text-anchor="middle">...</text></g><g id="edge13" class="edge"><title>next loadcategory-&gt;...</title><path fill="none" stroke="#000" d="M329.331,-476.813C329.331,-468.789 329.331,-459.047 329.331,-450.069"/><polygon fill="#000" stroke="#000" points="332.831 -450.029 329.331 -440.029 325.831 -450.029 332.831 -450.029"/></g><g id="node5" class="node"><title>**Crash**</title><polygon fill="none" stroke="#000" points="76.494 -182 .168 -182 .168 -146 76.494 -146 76.494 -182"/><text x="38.331" y="-159.8" font-family="Times,serif" font-size="14" text-anchor="middle">**Crash**</text></g><g id="edge4" class="edge"><title>superclass missing-&gt;**Crash**</title><path fill="none" stroke="#000" d="M88.6159,-403.87C71.7309,-391.965 51.1898,-374.572 39.3311,-354 9.97199,-303.07 21.2158,-230.86 30.6113,-192.098"/><polygon fill="#000" stroke="#000" points="34.082 -192.654 33.177 -182.097 27.302 -190.914 34.082 -192.654"/><text x="35.555" y="-288.8" font-family="Times,serif" font-size="14" text-anchor="middle">YES</text></g><g id="node6" class="node"><title>protocolclass missing</title><polygon fill="none" stroke="#000" points="184.766 -354 47.897 -354 47.897 -318 184.766 -318 184.766 -354"/><text x="116.331" y="-331.8" font-family="Times,serif" font-size="14" text-anchor="middle">protocolclass missing</text></g><g id="edge5" class="edge"><title>superclass missing-&gt;protocolclass missing</title><path fill="none" stroke="#000" d="M116.331,-403.595C116.331,-392.257 116.331,-377.227 116.331,-364.315"/><polygon fill="#000" stroke="#000" points="119.831 -364.095 116.331 -354.095 112.831 -364.095 119.831 -364.095"/><text x="126.441" y="-374.8" font-family="Times,serif" font-size="14" text-anchor="middle">NO</text></g><g id="edge6" class="edge"><title>protocolclass missing-&gt;**Crash**</title><path fill="none" stroke="#000" d="M90.9513,-317.94C75.3621,-305.948 56.5794,-288.433 46.8828,-268 35.6292,-244.286 34.4444,-214.041 35.4959,-192.473"/><polygon fill="#000" stroke="#000" points="38.997 -192.571 36.183 -182.357 32.013 -192.097 38.997 -192.571"/><text x="60.555" y="-245.8" font-family="Times,serif" font-size="14" text-anchor="middle">YES</text></g><g id="node7" class="node"><title>dependency missing</title><polygon fill="none" stroke="#000" points="212.252 -268 82.41 -268 82.41 -232 212.252 -232 212.252 -268"/><text x="147.331" y="-245.8" font-family="Times,serif" font-size="14" text-anchor="middle">dependency missing</text></g><g id="edge7" class="edge"><title>protocolclass missing-&gt;dependency missing</title><path fill="none" stroke="#000" d="M122.754,-317.595C127.022,-306.03 132.708,-290.624 137.535,-277.543"/><polygon fill="#000" stroke="#000" points="140.843 -278.688 141.022 -268.095 134.276 -276.265 140.843 -278.688"/><text x="144.441" y="-288.8" font-family="Times,serif" font-size="14" text-anchor="middle">NO</text></g><g id="edge8" class="edge"><title>dependency missing-&gt;**Crash**</title><path fill="none" stroke="#000" d="M125.01,-231.799C108.846,-219.342 86.7968,-202.35 68.9827,-188.621"/><polygon fill="#000" stroke="#000" points="70.679 -185.51 60.622 -182.178 66.406 -191.055 70.679 -185.51"/><text x="113.555" y="-202.8" font-family="Times,serif" font-size="14" text-anchor="middle">YES</text></g><g id="node8" class="node"><title>setup class</title><polygon fill="none" stroke="#000" points="199.597 -182 123.065 -182 123.065 -146 199.597 -146 199.597 -182"/><text x="161.331" y="-159.8" font-family="Times,serif" font-size="14" text-anchor="middle">setup class</text></g><g id="edge9" class="edge"><title>dependency missing-&gt;setup class</title><path fill="none" stroke="#000" d="M150.232,-231.595C152.122,-220.257 154.627,-205.227 156.779,-192.315"/><polygon fill="#000" stroke="#000" points="160.29 -192.535 158.482 -182.095 153.385 -191.384 160.29 -192.535"/><text x="165.441" y="-202.8" font-family="Times,serif" font-size="14" text-anchor="middle">NO</text></g><g id="node9" class="node"><title>add class</title><polygon fill="none" stroke="#000" points="208.759 -109 141.903 -109 141.903 -73 208.759 -73 208.759 -109"/><text x="175.331" y="-86.8" font-family="Times,serif" font-size="14" text-anchor="middle">add class</text></g><g id="edge10" class="edge"><title>setup class-&gt;add class</title><path fill="none" stroke="#000" d="M164.72,-145.813C166.302,-137.789 168.223,-128.047 169.993,-119.069"/><polygon fill="#000" stroke="#000" points="173.472 -119.517 171.973 -109.029 166.605 -118.163 173.472 -119.517"/></g><g id="node10" class="node"><title>call +load</title><polygon fill="none" stroke="#000" points="253.038 -36 181.624 -36 181.624 0 253.038 0 253.038 -36"/><text x="217.331" y="-13.8" font-family="Times,serif" font-size="14" text-anchor="middle">call +load</text></g><g id="edge11" class="edge"><title>add class-&gt;call +load</title><path fill="none" stroke="#000" d="M185.498,-72.8129C190.451,-64.4407 196.51,-54.1971 202.008,-44.9026"/><polygon fill="#000" stroke="#000" points="205.179 -46.418 207.258 -36.029 199.154 -42.854 205.179 -46.418"/></g><g id="edge12" class="edge"><title>call +load-&gt;next loadclass</title><path fill="none" stroke="#000" d="M226.158,-36.0084C232.644,-50.0897 240.331,-70.8236 240.331,-90 240.331,-423 240.331,-423 240.331,-423 240.331,-439.056 233.17,-455.329 225.421,-468.237"/><polygon fill="#000" stroke="#000" points="222.253 -466.692 219.769 -476.991 228.134 -470.489 222.253 -466.692"/></g></g></svg>