<svg xmlns="http://www.w3.org/2000/svg" xmlns:xlink="http://www.w3.org/1999/xlink" width="700pt" height="924" viewBox="0 0 699.54 693"><g id="graph0" class="graph" transform="scale(1 1) rotate(0) translate(4 689)"><title>loading</title><polygon fill="#fff" stroke="none" points="-4 4 -4 -689 695.544 -689 695.544 4 -4 4"/><g id="node1" class="node"><title>queue of loadclasses and loadcategories</title><polygon fill="none" stroke="#00f" stroke-width="3" points="430.632 -685 191.368 -685 191.368 -649 430.632 -649 430.632 -685"/><text x="311" y="-662.8" font-family="Times,serif" font-size="14" text-anchor="middle">queue of loadclasses and loadcategories</text></g><g id="node2" class="node"><title>next loadclass</title><polygon fill="none" stroke="#000" stroke-width="3" points="233.421 -599 138.579 -599 138.579 -563 233.421 -563 233.421 -599"/><text x="186" y="-576.8" font-family="Times,serif" font-size="14" text-anchor="middle">next loadclass</text></g><g id="edge1" class="edge"><title>queue of loadclasses and loadcategories-&gt;next loadclass</title><path fill="none" stroke="#000" d="M273.428,-648.878C263.101,-643.625 252.098,-637.5 242.462,-631 231.534,-623.628 220.39,-614.394 210.922,-605.934"/><polygon fill="#000" stroke="#000" points="213.148 -603.228 203.404 -599.068 208.428 -608.396 213.148 -603.228"/><text x="275.269" y="-619.8" font-family="Times,serif" font-size="14" text-anchor="middle">has classes</text></g><g id="node3" class="node"><title>next loadcategory</title><polygon fill="none" stroke="#000" stroke-width="3" points="368.9 -599 253.1 -599 253.1 -563 368.9 -563 368.9 -599"/><text x="311" y="-576.8" font-family="Times,serif" font-size="14" text-anchor="middle">next loadcategory</text></g><g id="edge2" class="edge"><title>queue of loadclasses and loadcategories-&gt;next loadcategory</title><path fill="none" stroke="#000" d="M311,-648.595C311,-637.257 311,-622.227 311,-609.315"/><polygon fill="#000" stroke="#000" points="314.5 -609.095 311 -599.095 307.5 -609.095 314.5 -609.095"/><text x="352.204" y="-619.8" font-family="Times,serif" font-size="14" text-anchor="middle">has categories</text></g><g id="node4" class="node"><title>run +load queue</title><polygon fill="none" stroke="red" stroke-width="3" points="691.589 -599 584.411 -599 584.411 -563 691.589 -563 691.589 -599"/><text x="638" y="-576.8" font-family="Times,serif" font-size="14" text-anchor="middle">run +load queue</text></g><g id="edge3" class="edge"><title>queue of loadclasses and loadcategories-&gt;run +load queue</title><path fill="none" stroke="#000" d="M430.786,-662.052C475.692,-657.441 526.377,-648.392 570,-631 585.046,-625.002 599.864,-614.955 611.807,-605.516"/><polygon fill="#000" stroke="#000" points="614.073 -608.184 619.584 -599.135 609.633 -602.772 614.073 -608.184"/><text x="615.997" y="-619.8" font-family="Times,serif" font-size="14" text-anchor="middle">empty</text></g><g id="node5" class="node"><title>superclass missing</title><polygon fill="none" stroke="#000" points="218.104 -526 97.896 -526 97.896 -490 218.104 -490 218.104 -526"/><text x="158" y="-503.8" font-family="Times,serif" font-size="14" text-anchor="middle">superclass missing</text></g><g id="edge4" class="edge"><title>next loadclass-&gt;superclass missing</title><path fill="none" stroke="#000" d="M179.222,-562.813C175.989,-554.615 172.049,-544.623 168.445,-535.485"/><polygon fill="#000" stroke="#000" points="171.64 -534.048 164.716 -526.029 165.128 -536.616 171.64 -534.048"/></g><g id="node13" class="node"><title>.class missing</title><polygon fill="none" stroke="#000" points="357.78 -526 264.22 -526 264.22 -490 357.78 -490 357.78 -526"/><text x="311" y="-503.8" font-family="Times,serif" font-size="14" text-anchor="middle">.class missing</text></g><g id="edge16" class="edge"><title>next loadcategory-&gt;.class missing</title><path fill="none" stroke="#000" d="M311,-562.813C311,-554.789 311,-545.047 311,-536.069"/><polygon fill="#000" stroke="#000" points="314.5 -536.029 311 -526.029 307.5 -536.029 314.5 -536.029"/></g><g id="node6" class="node"><title>add to waitqueue for missing classid</title><polygon fill="none" stroke="#00f" stroke-width="3" points="256.128 -36 35.872 -36 35.872 0 256.128 0 256.128 -36"/><text x="146" y="-13.8" font-family="Times,serif" font-size="14" text-anchor="middle">add to waitqueue for missing classid</text></g><g id="edge5" class="edge"><title>superclass missing-&gt;add to waitqueue for missing classid</title><path fill="none" stroke="#000" d="M105.607,-489.995C76.4579,-476.897 46,-455.448 46,-423 46,-423 46,-423 46,-90 46,-67.6505 62.8122,-51.6921 82.6497,-40.6413"/><polygon fill="#000" stroke="#000" points="84.305 -43.726 91.611 -36.053 81.114 -37.495 84.305 -43.726"/><text x="59.224" y="-245.8" font-family="Times,serif" font-size="14" text-anchor="middle">YES</text></g><g id="node7" class="node"><title>protocolclass missing</title><polygon fill="none" stroke="#000" points="226.435 -440 89.565 -440 89.565 -404 226.435 -404 226.435 -440"/><text x="158" y="-417.8" font-family="Times,serif" font-size="14" text-anchor="middle">protocolclass missing</text></g><g id="edge6" class="edge"><title>superclass missing-&gt;protocolclass missing</title><path fill="none" stroke="#000" d="M158,-489.595C158,-478.257 158,-463.227 158,-450.315"/><polygon fill="#000" stroke="#000" points="161.5 -450.095 158 -440.095 154.5 -450.095 161.5 -450.095"/><text x="168.11" y="-460.8" font-family="Times,serif" font-size="14" text-anchor="middle">NO</text></g><g id="edge15" class="edge"><title>add to waitqueue for missing classid-&gt;queue of loadclasses and loadcategories</title><path fill="none" stroke="#000" d="M45.395,-36.1525C20.1057,-46.5431 0,-63.2238 0,-90 0,-582 0,-582 0,-582 0,-621.743 95.8535,-643.248 181.131,-654.516"/><polygon fill="#000" stroke="#000" points="180.84 -658.007 191.204 -655.806 181.73 -651.064 180.84 -658.007"/></g><g id="edge7" class="edge"><title>protocolclass missing-&gt;add to waitqueue for missing classid</title><path fill="none" stroke="#000" d="M141.921,-403.734C131.127,-391.012 117.699,-372.73 111,-354 89.0867,-292.728 100,-273.073 100,-208 100,-208 100,-208 100,-90 100,-72.7711 109.658,-56.4238 120.124,-43.7677"/><polygon fill="#000" stroke="#000" points="122.992 -45.809 127.024 -36.012 117.763 -41.156 122.992 -45.809"/><text x="113.224" y="-202.8" font-family="Times,serif" font-size="14" text-anchor="middle">YES</text></g><g id="node8" class="node"><title>dependency missing</title><polygon fill="none" stroke="#000" points="249.921 -354 120.079 -354 120.079 -318 249.921 -318 249.921 -354"/><text x="185" y="-331.8" font-family="Times,serif" font-size="14" text-anchor="middle">dependency missing</text></g><g id="edge8" class="edge"><title>protocolclass missing-&gt;dependency missing</title><path fill="none" stroke="#000" d="M163.594,-403.595C167.275,-392.144 172.167,-376.926 176.344,-363.929"/><polygon fill="#000" stroke="#000" points="179.777 -364.686 179.505 -354.095 173.113 -362.544 179.777 -364.686"/><text x="184.11" y="-374.8" font-family="Times,serif" font-size="14" text-anchor="middle">NO</text></g><g id="edge9" class="edge"><title>dependency missing-&gt;add to waitqueue for missing classid</title><path fill="none" stroke="#000" d="M171.578,-317.729C160.297,-301.459 146,-275.922 146,-251 146,-251 146,-251 146,-90 146,-75.6513 146,-59.6715 146,-46.5107"/><polygon fill="#000" stroke="#000" points="149.5 -46.216 146 -36.216 142.5 -46.216 149.5 -46.216"/><text x="159.224" y="-159.8" font-family="Times,serif" font-size="14" text-anchor="middle">YES</text></g><g id="node9" class="node"><title>setup class</title><polygon fill="none" stroke="#000" points="321.266 -268 244.734 -268 244.734 -232 321.266 -232 321.266 -268"/><text x="283" y="-245.8" font-family="Times,serif" font-size="14" text-anchor="middle">setup class</text></g><g id="edge10" class="edge"><title>dependency missing-&gt;setup class</title><path fill="none" stroke="#000" d="M205.306,-317.595C219.724,-305.237 239.26,-288.492 255.134,-274.885"/><polygon fill="#000" stroke="#000" points="257.741 -277.261 263.056 -268.095 253.185 -271.946 257.741 -277.261"/><text x="250.11" y="-288.8" font-family="Times,serif" font-size="14" text-anchor="middle">NO</text></g><g id="node10" class="node"><title>queue +load</title><polygon fill="none" stroke="red" stroke-width="3" points="321.427 -182 236.573 -182 236.573 -146 321.427 -146 321.427 -182"/><text x="279" y="-159.8" font-family="Times,serif" font-size="14" text-anchor="middle">queue +load</text></g><g id="edge11" class="edge"><title>setup class-&gt;queue +load</title><path fill="none" stroke="#000" d="M282.171,-231.595C281.631,-220.257 280.916,-205.227 280.301,-192.315"/><polygon fill="#000" stroke="#000" points="283.786 -191.917 279.814 -182.095 276.794 -192.25 283.786 -191.917"/></g><g id="node11" class="node"><title>add class</title><polygon fill="none" stroke="#000" points="319.428 -109 252.572 -109 252.572 -73 319.428 -73 319.428 -109"/><text x="286" y="-86.8" font-family="Times,serif" font-size="14" text-anchor="middle">add class</text></g><g id="edge12" class="edge"><title>queue +load-&gt;add class</title><path fill="none" stroke="#000" d="M280.695,-145.813C281.486,-137.789 282.446,-128.047 283.331,-119.069"/><polygon fill="#000" stroke="#000" points="286.823 -119.324 284.321 -109.029 279.857 -118.637 286.823 -119.324"/></g><g id="node12" class="node"><title>run waitqueue for classid</title><polygon fill="none" stroke="#00f" stroke-width="3" points="562.621 -36 405.379 -36 405.379 0 562.621 0 562.621 -36"/><text x="484" y="-13.8" font-family="Times,serif" font-size="14" text-anchor="middle">run waitqueue for classid</text></g><g id="edge13" class="edge"><title>add class-&gt;run waitqueue for classid</title><path fill="none" stroke="#000" d="M319.588,-77.9558C348.936,-67.4322 392.164,-51.931 426.931,-39.4643"/><polygon fill="#000" stroke="#000" points="428.262 -42.705 436.493 -36.035 425.899 -36.116 428.262 -42.705"/></g><g id="edge14" class="edge"><title>run waitqueue for classid-&gt;queue of loadclasses and loadcategories</title><path fill="none" stroke="#000" d="M517.892,-36.2509C536.566,-48.3997 556,-66.6514 556,-90 556,-582 556,-582 556,-582 556,-611.664 490.92,-633.064 427.844,-646.838"/><polygon fill="#000" stroke="#000" points="426.802 -643.481 417.748 -648.984 428.257 -650.328 426.802 -643.481"/></g><g id="edge17" class="edge"><title>.class missing-&gt;add to waitqueue for missing classid</title><path fill="none" stroke="#000" d="M307.069,-489.759C296.922,-445.748 269.883,-331.738 259,-318 248.626,-304.905 237.667,-311.958 226,-300 196.326,-269.588 200,-250.49 200,-208 200,-208 200,-208 200,-90 200,-72.0454 188.925,-55.7912 176.805,-43.3798"/><polygon fill="#000" stroke="#000" points="178.875 -40.518 169.214 -36.168 174.053 -45.593 178.875 -40.518"/><text x="218.224" y="-245.8" font-family="Times,serif" font-size="14" text-anchor="middle">YES</text></g><g id="node14" class="node"><title>.protocolclass missing</title><polygon fill="none" stroke="#000" points="446.435 -440 305.565 -440 305.565 -404 446.435 -404 446.435 -440"/><text x="376" y="-417.8" font-family="Times,serif" font-size="14" text-anchor="middle">.protocolclass missing</text></g><g id="edge18" class="edge"><title>.class missing-&gt;.protocolclass missing</title><path fill="none" stroke="#000" d="M324.468,-489.595C333.768,-477.577 346.278,-461.41 356.643,-448.015"/><polygon fill="#000" stroke="#000" points="359.42 -450.146 362.772 -440.095 353.884 -445.862 359.42 -450.146"/><text x="358.11" y="-460.8" font-family="Times,serif" font-size="14" text-anchor="middle">NO</text></g><g id="edge19" class="edge"><title>.protocolclass missing-&gt;add to waitqueue for missing classid</title><path fill="none" stroke="#000" d="M367.009,-403.819C359.155,-387.194 349,-361.05 349,-337 349,-337 349,-337 349,-90 349,-67.2955 303.182,-50.1391 255.081,-38.3836"/><polygon fill="#000" stroke="#000" points="255.658 -34.924 245.121 -36.031 254.049 -41.736 255.658 -34.924"/><text x="362.224" y="-202.8" font-family="Times,serif" font-size="14" text-anchor="middle">YES</text></g><g id="node15" class="node"><title>.dependency missing</title><polygon fill="none" stroke="#000" points="510.922 -354 377.078 -354 377.078 -318 510.922 -318 510.922 -354"/><text x="444" y="-331.8" font-family="Times,serif" font-size="14" text-anchor="middle">.dependency missing</text></g><g id="edge20" class="edge"><title>.protocolclass missing-&gt;.dependency missing</title><path fill="none" stroke="#000" d="M390.09,-403.595C399.819,-391.577 412.906,-375.41 423.75,-362.015"/><polygon fill="#000" stroke="#000" points="426.589 -364.07 430.161 -354.095 421.149 -359.665 426.589 -364.07"/><text x="425.11" y="-374.8" font-family="Times,serif" font-size="14" text-anchor="middle">NO</text></g><g id="edge21" class="edge"><title>.dependency missing-&gt;add to waitqueue for missing classid</title><path fill="none" stroke="#000" d="M426.586,-317.693C412.502,-301.79 395,-276.831 395,-251 395,-251 395,-251 395,-90 395,-68.5927 381.766,-64.3014 363,-54 345.578,-44.4363 306.409,-36.8609 266.073,-31.239"/><polygon fill="#000" stroke="#000" points="266.462 -27.76 256.084 -29.888 265.524 -34.697 266.462 -27.76"/><text x="408.224" y="-159.8" font-family="Times,serif" font-size="14" text-anchor="middle">YES</text></g><g id="node16" class="node"><title>setup category</title><polygon fill="none" stroke="#000" points="524.745 -268 427.255 -268 427.255 -232 524.745 -232 524.745 -268"/><text x="476" y="-245.8" font-family="Times,serif" font-size="14" text-anchor="middle">setup category</text></g><g id="edge22" class="edge"><title>.dependency missing-&gt;setup category</title><path fill="none" stroke="#000" d="M450.63,-317.595C455.036,-306.03 460.905,-290.624 465.888,-277.543"/><polygon fill="#000" stroke="#000" points="469.198 -278.686 469.488 -268.095 462.657 -276.194 469.198 -278.686"/><text x="472.11" y="-288.8" font-family="Times,serif" font-size="14" text-anchor="middle">NO</text></g><g id="node17" class="node"><title>.queue +load</title><polygon fill="none" stroke="red" stroke-width="3" points="528.428 -182 439.572 -182 439.572 -146 528.428 -146 528.428 -182"/><text x="484" y="-159.8" font-family="Times,serif" font-size="14" text-anchor="middle">.queue +load</text></g><g id="edge23" class="edge"><title>setup category-&gt;.queue +load</title><path fill="none" stroke="#000" d="M477.658,-231.595C478.737,-220.257 480.169,-205.227 481.399,-192.315"/><polygon fill="#000" stroke="#000" points="484.908 -192.382 482.372 -182.095 477.939 -191.718 484.908 -192.382"/></g><g id="node18" class="node"><title>add category</title><polygon fill="none" stroke="#000" points="527.907 -109 440.093 -109 440.093 -73 527.907 -73 527.907 -109"/><text x="484" y="-86.8" font-family="Times,serif" font-size="14" text-anchor="middle">add category</text></g><g id="edge24" class="edge"><title>.queue +load-&gt;add category</title><path fill="none" stroke="#000" d="M484,-145.813C484,-137.789 484,-128.047 484,-119.069"/><polygon fill="#000" stroke="#000" points="487.5 -119.029 484 -109.029 480.5 -119.029 487.5 -119.029"/></g><g id="edge25" class="edge"><title>add category-&gt;run waitqueue for classid</title><path fill="none" stroke="#000" d="M484,-72.8129C484,-64.7895 484,-55.0475 484,-46.0691"/><polygon fill="#000" stroke="#000" points="487.5 -46.029 484 -36.029 480.5 -46.029 487.5 -46.029"/></g></g></svg>