<?xml version="1.0" encoding="UTF-8" standalone="no"?>
<!DOCTYPE svg PUBLIC "-//W3C//DTD SVG 1.1//EN"
 "http://www.w3.org/Graphics/SVG/1.1/DTD/svg11.dtd">
<!-- Generated by graphviz version 2.38.0 (20140413.2041)
 -->
<!-- Title: load_loop Pages: 1 -->
<svg width="566pt" height="607pt"
 viewBox="0.00 0.00 566.46 607.00" xmlns="http://www.w3.org/2000/svg" xmlns:xlink="http://www.w3.org/1999/xlink">
<g id="graph0" class="graph" transform="scale(1 1) rotate(0) translate(4 603)">
<title>load_loop</title>
<polygon fill="white" stroke="none" points="-4,4 -4,-603 562.456,-603 562.456,4 -4,4"/>
<!-- list of loadclasses and loadcategories -->
<g id="node1" class="node"><title>list of loadclasses and loadcategories</title>
<polygon fill="none" stroke="black" points="296.174,-599 73.5317,-599 73.5317,-563 296.174,-563 296.174,-599"/>
<text text-anchor="middle" x="184.853" y="-576.8" font-family="Times,serif" font-size="14.00">list of loadclasses and loadcategories</text>
</g>
<!-- next loadclass -->
<g id="node2" class="node"><title>next loadclass</title>
<polygon fill="none" stroke="black" points="162.274,-513 67.4321,-513 67.4321,-477 162.274,-477 162.274,-513"/>
<text text-anchor="middle" x="114.853" y="-490.8" font-family="Times,serif" font-size="14.00">next loadclass</text>
</g>
<!-- list of loadclasses and loadcategories&#45;&gt;next loadclass -->
<g id="edge1" class="edge"><title>list of loadclasses and loadcategories&#45;&gt;next loadclass</title>
<path fill="none" stroke="black" d="M170.393,-562.941C165.583,-557.246 160.207,-550.86 155.315,-545 148.877,-537.288 141.899,-528.862 135.58,-521.207"/>
<polygon fill="black" stroke="black" points="138.101,-518.762 129.039,-513.272 132.7,-523.214 138.101,-518.762"/>
<text text-anchor="middle" x="188.122" y="-533.8" font-family="Times,serif" font-size="14.00"> has classes</text>
</g>
<!-- next loadcategory -->
<g id="node3" class="node"><title>next loadcategory</title>
<polygon fill="none" stroke="black" points="330.753,-513 214.953,-513 214.953,-477 330.753,-477 330.753,-513"/>
<text text-anchor="middle" x="272.853" y="-490.8" font-family="Times,serif" font-size="14.00">next loadcategory</text>
</g>
<!-- list of loadclasses and loadcategories&#45;&gt;next loadcategory -->
<g id="edge2" class="edge"><title>list of loadclasses and loadcategories&#45;&gt;next loadcategory</title>
<path fill="none" stroke="black" d="M203.087,-562.595C215.915,-550.35 233.254,-533.799 247.438,-520.26"/>
<polygon fill="black" stroke="black" points="250.127,-522.532 254.944,-513.095 245.294,-517.468 250.127,-522.532"/>
<text text-anchor="middle" x="276.057" y="-533.8" font-family="Times,serif" font-size="14.00"> has categories</text>
</g>
<!-- superclass missing -->
<g id="node4" class="node"><title>superclass missing</title>
<polygon fill="none" stroke="black" points="174.957,-440 54.7489,-440 54.7489,-404 174.957,-404 174.957,-440"/>
<text text-anchor="middle" x="114.853" y="-417.8" font-family="Times,serif" font-size="14.00">superclass missing</text>
</g>
<!-- next loadclass&#45;&gt;superclass missing -->
<g id="edge3" class="edge"><title>next loadclass&#45;&gt;superclass missing</title>
<path fill="none" stroke="black" d="M114.853,-476.813C114.853,-468.789 114.853,-459.047 114.853,-450.069"/>
<polygon fill="black" stroke="black" points="118.353,-450.029 114.853,-440.029 111.353,-450.029 118.353,-450.029"/>
</g>
<!-- .superclass missing -->
<g id="node10" class="node"><title>.superclass missing</title>
<polygon fill="none" stroke="black" points="334.957,-440 210.749,-440 210.749,-404 334.957,-404 334.957,-440"/>
<text text-anchor="middle" x="272.853" y="-417.8" font-family="Times,serif" font-size="14.00">.superclass missing</text>
</g>
<!-- next loadcategory&#45;&gt;.superclass missing -->
<g id="edge11" class="edge"><title>next loadcategory&#45;&gt;.superclass missing</title>
<path fill="none" stroke="black" d="M272.853,-476.813C272.853,-468.789 272.853,-459.047 272.853,-450.069"/>
<polygon fill="black" stroke="black" points="276.353,-450.029 272.853,-440.029 269.353,-450.029 276.353,-450.029"/>
</g>
<!-- **Crash** -->
<g id="node5" class="node"><title>**Crash**</title>
<polygon fill="none" stroke="black" points="281.016,-182 204.69,-182 204.69,-146 281.016,-146 281.016,-182"/>
<text text-anchor="middle" x="242.853" y="-159.8" font-family="Times,serif" font-size="14.00">**Crash**</text>
</g>
<!-- superclass missing&#45;&gt;**Crash** -->
<g id="edge4" class="edge"><title>superclass missing&#45;&gt;**Crash**</title>
<path fill="none" stroke="black" d="M98.3376,-403.881C87.3377,-391.228 73.8428,-372.969 67.853,-354 51.5258,-302.294 37.1216,-276.672 67.853,-232 96.0695,-190.983 153.086,-175.063 194.387,-168.891"/>
<polygon fill="black" stroke="black" points="195.08,-172.33 204.522,-167.523 194.144,-165.392 195.08,-172.33"/>
<text text-anchor="middle" x="65.0771" y="-288.8" font-family="Times,serif" font-size="14.00">YES</text>
</g>
<!-- protocolclass missing -->
<g id="node6" class="node"><title>protocolclass missing</title>
<polygon fill="none" stroke="black" points="213.288,-354 76.4184,-354 76.4184,-318 213.288,-318 213.288,-354"/>
<text text-anchor="middle" x="144.853" y="-331.8" font-family="Times,serif" font-size="14.00">protocolclass missing</text>
</g>
<!-- superclass missing&#45;&gt;protocolclass missing -->
<g id="edge5" class="edge"><title>superclass missing&#45;&gt;protocolclass missing</title>
<path fill="none" stroke="black" d="M121.069,-403.595C125.199,-392.03 130.701,-376.624 135.373,-363.543"/>
<polygon fill="black" stroke="black" points="138.68,-364.69 138.748,-354.095 132.088,-362.335 138.68,-364.69"/>
<text text-anchor="middle" x="141.963" y="-374.8" font-family="Times,serif" font-size="14.00">NO</text>
</g>
<!-- protocolclass missing&#45;&gt;**Crash** -->
<g id="edge6" class="edge"><title>protocolclass missing&#45;&gt;**Crash**</title>
<path fill="none" stroke="black" d="M154.25,-317.769C165.503,-297.233 185.014,-261.933 202.405,-232 210.292,-218.425 219.299,-203.455 226.809,-191.115"/>
<polygon fill="black" stroke="black" points="229.993,-192.616 232.217,-182.257 224.019,-188.969 229.993,-192.616"/>
<text text-anchor="middle" x="216.077" y="-245.8" font-family="Times,serif" font-size="14.00">YES</text>
</g>
<!-- setup class -->
<g id="node7" class="node"><title>setup class</title>
<polygon fill="none" stroke="black" points="153.119,-268 76.5869,-268 76.5869,-232 153.119,-232 153.119,-268"/>
<text text-anchor="middle" x="114.853" y="-245.8" font-family="Times,serif" font-size="14.00">setup class</text>
</g>
<!-- protocolclass missing&#45;&gt;setup class -->
<g id="edge7" class="edge"><title>protocolclass missing&#45;&gt;setup class</title>
<path fill="none" stroke="black" d="M138.637,-317.595C134.507,-306.03 129.005,-290.624 124.333,-277.543"/>
<polygon fill="black" stroke="black" points="127.618,-276.335 120.958,-268.095 121.026,-278.69 127.618,-276.335"/>
<text text-anchor="middle" x="141.963" y="-288.8" font-family="Times,serif" font-size="14.00">NO</text>
</g>
<!-- add class -->
<g id="node8" class="node"><title>add class</title>
<polygon fill="none" stroke="black" points="116.281,-182 49.4253,-182 49.4253,-146 116.281,-146 116.281,-182"/>
<text text-anchor="middle" x="82.853" y="-159.8" font-family="Times,serif" font-size="14.00">add class</text>
</g>
<!-- setup class&#45;&gt;add class -->
<g id="edge8" class="edge"><title>setup class&#45;&gt;add class</title>
<path fill="none" stroke="black" d="M108.223,-231.595C103.817,-220.03 97.948,-204.624 92.9647,-191.543"/>
<polygon fill="black" stroke="black" points="96.1962,-190.194 89.3655,-182.095 89.6548,-192.686 96.1962,-190.194"/>
</g>
<!-- call +load -->
<g id="node9" class="node"><title>call +load</title>
<polygon fill="none" stroke="black" points="71.5597,-109 0.146373,-109 0.146373,-73 71.5597,-73 71.5597,-109"/>
<text text-anchor="middle" x="35.853" y="-86.8" font-family="Times,serif" font-size="14.00">call +load</text>
</g>
<!-- add class&#45;&gt;call +load -->
<g id="edge9" class="edge"><title>add class&#45;&gt;call +load</title>
<path fill="none" stroke="black" d="M71.4756,-145.813C65.8757,-137.353 59.0111,-126.984 52.8077,-117.612"/>
<polygon fill="black" stroke="black" points="55.564,-115.435 47.1256,-109.029 49.7271,-119.299 55.564,-115.435"/>
</g>
<!-- call +load&#45;&gt;next loadclass -->
<g id="edge10" class="edge"><title>call +load&#45;&gt;next loadclass</title>
<path fill="none" stroke="black" d="M26.1158,-109.206C19.0962,-123.231 10.853,-143.79 10.853,-163 10.853,-423 10.853,-423 10.853,-423 10.853,-449.267 33.7619,-466.518 58.0757,-477.429"/>
<polygon fill="black" stroke="black" points="56.8403,-480.706 67.4181,-481.306 59.5235,-474.241 56.8403,-480.706"/>
</g>
<!-- .superclass missing&#45;&gt;**Crash** -->
<g id="edge12" class="edge"><title>.superclass missing&#45;&gt;**Crash**</title>
<path fill="none" stroke="black" d="M269.755,-403.97C267.37,-390.454 264.109,-371.062 261.853,-354 254.292,-296.817 248.194,-229.547 245.089,-192.666"/>
<polygon fill="black" stroke="black" points="248.539,-191.917 244.223,-182.241 241.563,-192.496 248.539,-191.917"/>
<text text-anchor="middle" x="269.077" y="-288.8" font-family="Times,serif" font-size="14.00">YES</text>
</g>
<!-- .protocolclass missing -->
<g id="node11" class="node"><title>.protocolclass missing</title>
<polygon fill="none" stroke="black" points="411.288,-354 270.418,-354 270.418,-318 411.288,-318 411.288,-354"/>
<text text-anchor="middle" x="340.853" y="-331.8" font-family="Times,serif" font-size="14.00">.protocolclass missing</text>
</g>
<!-- .superclass missing&#45;&gt;.protocolclass missing -->
<g id="edge13" class="edge"><title>.superclass missing&#45;&gt;.protocolclass missing</title>
<path fill="none" stroke="black" d="M286.943,-403.595C296.672,-391.577 309.759,-375.41 320.603,-362.015"/>
<polygon fill="black" stroke="black" points="323.442,-364.07 327.014,-354.095 318.002,-359.665 323.442,-364.07"/>
<text text-anchor="middle" x="321.963" y="-374.8" font-family="Times,serif" font-size="14.00">NO</text>
</g>
<!-- .protocolclass missing&#45;&gt;**Crash** -->
<g id="edge14" class="edge"><title>.protocolclass missing&#45;&gt;**Crash**</title>
<path fill="none" stroke="black" d="M329.522,-317.853C320.771,-304.437 308.493,-285.23 298.405,-268 283.361,-242.305 267.335,-212.273 256.383,-191.291"/>
<polygon fill="black" stroke="black" points="259.446,-189.595 251.729,-182.336 253.234,-192.823 259.446,-189.595"/>
<text text-anchor="middle" x="312.077" y="-245.8" font-family="Times,serif" font-size="14.00">YES</text>
</g>
<!-- .categoryDependency missing -->
<g id="node12" class="node"><title>.categoryDependency missing</title>
<polygon fill="none" stroke="black" points="518.078,-268 333.628,-268 333.628,-232 518.078,-232 518.078,-268"/>
<text text-anchor="middle" x="425.853" y="-245.8" font-family="Times,serif" font-size="14.00">.categoryDependency missing</text>
</g>
<!-- .protocolclass missing&#45;&gt;.categoryDependency missing -->
<g id="edge15" class="edge"><title>.protocolclass missing&#45;&gt;.categoryDependency missing</title>
<path fill="none" stroke="black" d="M358.465,-317.595C370.856,-305.35 387.604,-288.799 401.304,-275.26"/>
<polygon fill="black" stroke="black" points="403.902,-277.614 408.554,-268.095 398.981,-272.635 403.902,-277.614"/>
<text text-anchor="middle" x="398.963" y="-288.8" font-family="Times,serif" font-size="14.00">NO</text>
</g>
<!-- .categoryDependency missing&#45;&gt;**Crash** -->
<g id="edge16" class="edge"><title>.categoryDependency missing&#45;&gt;**Crash**</title>
<path fill="none" stroke="black" d="M388.379,-231.799C359.665,-218.619 319.892,-200.362 289.182,-186.266"/>
<polygon fill="black" stroke="black" points="290.513,-183.025 279.964,-182.035 287.592,-189.387 290.513,-183.025"/>
<text text-anchor="middle" x="359.077" y="-202.8" font-family="Times,serif" font-size="14.00">YES</text>
</g>
<!-- setup category -->
<g id="node13" class="node"><title>setup category</title>
<polygon fill="none" stroke="black" points="506.598,-182 409.108,-182 409.108,-146 506.598,-146 506.598,-182"/>
<text text-anchor="middle" x="457.853" y="-159.8" font-family="Times,serif" font-size="14.00">setup category</text>
</g>
<!-- .categoryDependency missing&#45;&gt;setup category -->
<g id="edge17" class="edge"><title>.categoryDependency missing&#45;&gt;setup category</title>
<path fill="none" stroke="black" d="M432.483,-231.595C436.889,-220.03 442.758,-204.624 447.741,-191.543"/>
<polygon fill="black" stroke="black" points="451.051,-192.686 451.341,-182.095 444.51,-190.194 451.051,-192.686"/>
<text text-anchor="middle" x="452.963" y="-202.8" font-family="Times,serif" font-size="14.00">NO</text>
</g>
<!-- add category -->
<g id="node14" class="node"><title>add category</title>
<polygon fill="none" stroke="black" points="513.76,-109 425.946,-109 425.946,-73 513.76,-73 513.76,-109"/>
<text text-anchor="middle" x="469.853" y="-86.8" font-family="Times,serif" font-size="14.00">add category</text>
</g>
<!-- setup category&#45;&gt;add category -->
<g id="edge18" class="edge"><title>setup category&#45;&gt;add category</title>
<path fill="none" stroke="black" d="M460.758,-145.813C462.114,-137.789 463.76,-128.047 465.278,-119.069"/>
<polygon fill="black" stroke="black" points="468.759,-119.472 466.975,-109.029 461.857,-118.306 468.759,-119.472"/>
</g>
<!-- .call +load -->
<g id="node15" class="node"><title>.call +load</title>
<polygon fill="none" stroke="black" points="558.559,-36 483.147,-36 483.147,-0 558.559,-0 558.559,-36"/>
<text text-anchor="middle" x="520.853" y="-13.8" font-family="Times,serif" font-size="14.00">.call +load</text>
</g>
<!-- add category&#45;&gt;.call +load -->
<g id="edge19" class="edge"><title>add category&#45;&gt;.call +load</title>
<path fill="none" stroke="black" d="M482.199,-72.8129C488.338,-64.2662 495.878,-53.7695 502.663,-44.3229"/>
<polygon fill="black" stroke="black" points="505.63,-46.1926 508.621,-36.0288 499.944,-42.1088 505.63,-46.1926"/>
</g>
<!-- .call +load&#45;&gt;next loadcategory -->
<g id="edge20" class="edge"><title>.call +load&#45;&gt;next loadcategory</title>
<path fill="none" stroke="black" d="M530.59,-36.2059C537.61,-50.2306 545.853,-70.7897 545.853,-90 545.853,-423 545.853,-423 545.853,-423 545.853,-465.209 422.075,-482.766 341.211,-489.733"/>
<polygon fill="black" stroke="black" points="340.761,-486.258 331.084,-490.57 341.338,-493.234 340.761,-486.258"/>
</g>
</g>
</svg>
