<?xml version="1.0" encoding="UTF-8" standalone="no"?>
<!DOCTYPE svg PUBLIC "-//W3C//DTD SVG 1.1//EN"
 "http://www.w3.org/Graphics/SVG/1.1/DTD/svg11.dtd">
<!-- Generated by graphviz version 2.38.0 (20140413.2041)
 -->
<!-- Title: dilemma Pages: 1 -->
<svg width="586pt" height="764pt"
 viewBox="0.00 0.00 585.84 764.00" xmlns="http://www.w3.org/2000/svg" xmlns:xlink="http://www.w3.org/1999/xlink">
<g id="graph0" class="graph" transform="scale(1 1) rotate(0) translate(4 760)">
<title>dilemma</title>
<polygon fill="white" stroke="none" points="-4,4 -4,-760 581.845,-760 581.845,4 -4,4"/>
<!-- A -->
<g id="node1" class="node"><title>A</title>
<polygon fill="none" stroke="black" points="175.812,-756 127.812,-756 127.812,-720 181.812,-720 181.812,-750 175.812,-756"/>
<polyline fill="none" stroke="black" points="175.812,-756 175.812,-750 "/>
<polyline fill="none" stroke="black" points="181.812,-750 175.812,-750 "/>
<text text-anchor="middle" x="154.812" y="-733.8" font-family="Times,serif" font-size="14.00">A</text>
</g>
<!-- A: [[NSBundle bundleWithPath:@&quot;Foo&quot;] load] start -->
<g id="node3" class="node"><title>A: [[NSBundle bundleWithPath:@&quot;Foo&quot;] load] start</title>
<polygon fill="none" stroke="black" points="309.436,-684 0.18776,-684 0.18776,-648 309.436,-648 309.436,-684"/>
<text text-anchor="middle" x="154.812" y="-661.8" font-family="Times,serif" font-size="14.00">A: [[NSBundle bundleWithPath:@&quot;Foo&quot;] load] start</text>
</g>
<!-- A&#45;&gt;A: [[NSBundle bundleWithPath:@&quot;Foo&quot;] load] start -->
<g id="edge1" class="edge"><title>A&#45;&gt;A: [[NSBundle bundleWithPath:@&quot;Foo&quot;] load] start</title>
<path fill="none" stroke="black" d="M154.812,-719.697C154.812,-711.983 154.812,-702.712 154.812,-694.112"/>
<polygon fill="black" stroke="black" points="158.312,-694.104 154.812,-684.104 151.312,-694.104 158.312,-694.104"/>
</g>
<!-- B -->
<g id="node2" class="node"><title>B</title>
<polygon fill="none" stroke="red" points="430.812,-756 382.812,-756 382.812,-720 436.812,-720 436.812,-750 430.812,-756"/>
<polyline fill="none" stroke="red" points="430.812,-756 430.812,-750 "/>
<polyline fill="none" stroke="red" points="436.812,-750 430.812,-750 "/>
<text text-anchor="middle" x="409.812" y="-733.8" font-family="Times,serif" font-size="14.00">B</text>
</g>
<!-- B: [[NSBundle bundleWithPath:@&quot;Foo_Bar&quot;] load] start -->
<g id="node4" class="node"><title>B: [[NSBundle bundleWithPath:@&quot;Foo_Bar&quot;] load] start</title>
<polygon fill="none" stroke="red" points="577.877,-612 241.747,-612 241.747,-576 577.877,-576 577.877,-612"/>
<text text-anchor="middle" x="409.812" y="-589.8" font-family="Times,serif" font-size="14.00">B: [[NSBundle bundleWithPath:@&quot;Foo_Bar&quot;] load] start</text>
</g>
<!-- B&#45;&gt;B: [[NSBundle bundleWithPath:@&quot;Foo_Bar&quot;] load] start -->
<g id="edge7" class="edge"><title>B&#45;&gt;B: [[NSBundle bundleWithPath:@&quot;Foo_Bar&quot;] load] start</title>
<path fill="none" stroke="red" d="M409.812,-719.871C409.812,-695.67 409.812,-651.211 409.812,-622.393"/>
<polygon fill="red" stroke="red" points="413.312,-622.189 409.812,-612.189 406.312,-622.189 413.312,-622.189"/>
</g>
<!-- A: queue +[Foo load] -->
<g id="node6" class="node"><title>A: queue +[Foo load]</title>
<polygon fill="none" stroke="black" points="223.349,-612 86.2749,-612 86.2749,-576 223.349,-576 223.349,-612"/>
<text text-anchor="middle" x="154.812" y="-589.8" font-family="Times,serif" font-size="14.00">A: queue +[Foo load]</text>
</g>
<!-- A: [[NSBundle bundleWithPath:@&quot;Foo&quot;] load] start&#45;&gt;A: queue +[Foo load] -->
<g id="edge3" class="edge"><title>A: [[NSBundle bundleWithPath:@&quot;Foo&quot;] load] start&#45;&gt;A: queue +[Foo load]</title>
<path fill="none" stroke="black" d="M154.812,-647.697C154.812,-639.983 154.812,-630.712 154.812,-622.112"/>
<polygon fill="black" stroke="black" points="158.312,-622.104 154.812,-612.104 151.312,-622.104 158.312,-622.104"/>
</g>
<!-- B: add Foo(B) to #Foo waitqueue -->
<g id="node5" class="node"><title>B: add Foo(B) to #Foo waitqueue</title>
<polygon fill="none" stroke="red" points="495.909,-540 291.715,-540 291.715,-504 495.909,-504 495.909,-540"/>
<text text-anchor="middle" x="393.812" y="-517.8" font-family="Times,serif" font-size="14.00">B: add Foo(B) to #Foo waitqueue</text>
</g>
<!-- B: [[NSBundle bundleWithPath:@&quot;Foo_Bar&quot;] load] start&#45;&gt;B: add Foo(B) to #Foo waitqueue -->
<g id="edge2" class="edge"><title>B: [[NSBundle bundleWithPath:@&quot;Foo_Bar&quot;] load] start&#45;&gt;B: add Foo(B) to #Foo waitqueue</title>
<path fill="none" stroke="red" d="M405.857,-575.697C404.094,-567.983 401.975,-558.712 400.009,-550.112"/>
<polygon fill="red" stroke="red" points="403.362,-549.073 397.722,-540.104 396.538,-550.633 403.362,-549.073"/>
</g>
<!-- B: [[NSBundle bundleWithPath:@&quot;Foo_Bar&quot;] load] end -->
<g id="node8" class="node"><title>B: [[NSBundle bundleWithPath:@&quot;Foo_Bar&quot;] load] end</title>
<polygon fill="none" stroke="red" points="544.988,-468 212.636,-468 212.636,-432 544.988,-432 544.988,-468"/>
<text text-anchor="middle" x="378.812" y="-445.8" font-family="Times,serif" font-size="14.00">B: [[NSBundle bundleWithPath:@&quot;Foo_Bar&quot;] load] end</text>
</g>
<!-- B: add Foo(B) to #Foo waitqueue&#45;&gt;B: [[NSBundle bundleWithPath:@&quot;Foo_Bar&quot;] load] end -->
<g id="edge10" class="edge"><title>B: add Foo(B) to #Foo waitqueue&#45;&gt;B: [[NSBundle bundleWithPath:@&quot;Foo_Bar&quot;] load] end</title>
<path fill="none" stroke="red" d="M390.104,-503.697C388.451,-495.983 386.465,-486.712 384.622,-478.112"/>
<polygon fill="red" stroke="red" points="387.995,-477.149 382.477,-468.104 381.15,-478.616 387.995,-477.149"/>
</g>
<!-- A: add Foo -->
<g id="node7" class="node"><title>A: add Foo</title>
<polygon fill="none" stroke="black" points="224.312,-540 145.312,-540 145.312,-504 224.312,-504 224.312,-540"/>
<text text-anchor="middle" x="184.812" y="-517.8" font-family="Times,serif" font-size="14.00">A: add Foo</text>
</g>
<!-- A: queue +[Foo load]&#45;&gt;A: add Foo -->
<g id="edge4" class="edge"><title>A: queue +[Foo load]&#45;&gt;A: add Foo</title>
<path fill="none" stroke="black" d="M162.228,-575.697C165.606,-567.813 169.682,-558.304 173.435,-549.546"/>
<polygon fill="black" stroke="black" points="176.759,-550.675 177.482,-540.104 170.325,-547.917 176.759,-550.675"/>
</g>
<!-- A: add Foo&#45;&gt;B: [[NSBundle bundleWithPath:@&quot;Foo_Bar&quot;] load] end -->
<!-- A: run #Foo waitqueue -->
<g id="node9" class="node"><title>A: run #Foo waitqueue</title>
<polygon fill="none" stroke="black" points="313.792,-252 167.832,-252 167.832,-216 313.792,-216 313.792,-252"/>
<text text-anchor="middle" x="240.812" y="-229.8" font-family="Times,serif" font-size="14.00">A: run #Foo waitqueue</text>
</g>
<!-- A: add Foo&#45;&gt;A: run #Foo waitqueue -->
<g id="edge6" class="edge"><title>A: add Foo&#45;&gt;A: run #Foo waitqueue</title>
<path fill="none" stroke="black" d="M188.147,-503.966C197.502,-456.192 224.047,-320.623 235.473,-262.266"/>
<polygon fill="black" stroke="black" points="238.936,-262.793 237.423,-252.306 232.067,-261.448 238.936,-262.793"/>
</g>
<!-- B: [Foo new] -->
<g id="node10" class="node"><title>B: [Foo new]</title>
<polygon fill="none" stroke="red" points="396.975,-396 306.649,-396 306.649,-360 396.975,-360 396.975,-396"/>
<text text-anchor="middle" x="351.812" y="-373.8" font-family="Times,serif" font-size="14.00">B: [Foo new]</text>
</g>
<!-- B: [[NSBundle bundleWithPath:@&quot;Foo_Bar&quot;] load] end&#45;&gt;B: [Foo new] -->
<g id="edge11" class="edge"><title>B: [[NSBundle bundleWithPath:@&quot;Foo_Bar&quot;] load] end&#45;&gt;B: [Foo new]</title>
<path fill="none" stroke="red" d="M372.138,-431.697C369.097,-423.813 365.429,-414.304 362.051,-405.546"/>
<polygon fill="red" stroke="red" points="365.274,-404.175 358.409,-396.104 358.743,-406.694 365.274,-404.175"/>
</g>
<!-- A: add Foo(B) -->
<g id="node12" class="node"><title>A: add Foo(B)</title>
<polygon fill="none" stroke="black" points="289.475,-180 192.149,-180 192.149,-144 289.475,-144 289.475,-180"/>
<text text-anchor="middle" x="240.812" y="-157.8" font-family="Times,serif" font-size="14.00">A: add Foo(B)</text>
</g>
<!-- A: run #Foo waitqueue&#45;&gt;A: add Foo(B) -->
<g id="edge9" class="edge"><title>A: run #Foo waitqueue&#45;&gt;A: add Foo(B)</title>
<path fill="none" stroke="black" d="M240.812,-215.697C240.812,-207.983 240.812,-198.712 240.812,-190.112"/>
<polygon fill="black" stroke="black" points="244.312,-190.104 240.812,-180.104 237.312,-190.104 244.312,-190.104"/>
</g>
<!-- B: [Foo initialize] -->
<g id="node11" class="node"><title>B: [Foo initialize]</title>
<polygon fill="none" stroke="red" points="356.13,-324 239.494,-324 239.494,-288 356.13,-288 356.13,-324"/>
<text text-anchor="middle" x="297.812" y="-301.8" font-family="Times,serif" font-size="14.00">B: [Foo initialize]</text>
</g>
<!-- B: [Foo new]&#45;&gt;B: [Foo initialize] -->
<g id="edge12" class="edge"><title>B: [Foo new]&#45;&gt;B: [Foo initialize]</title>
<path fill="none" stroke="red" d="M338.464,-359.697C332.055,-351.389 324.254,-341.277 317.206,-332.141"/>
<polygon fill="red" stroke="red" points="319.886,-329.884 311.007,-324.104 314.344,-334.16 319.886,-329.884"/>
</g>
<!-- B: [Foo initialize]&#45;&gt;A: run #Foo waitqueue -->
<!-- A: +[Foo load] -->
<g id="node13" class="node"><title>A: +[Foo load]</title>
<polygon fill="none" stroke="black" points="290.921,-108 190.703,-108 190.703,-72 290.921,-72 290.921,-108"/>
<text text-anchor="middle" x="240.812" y="-85.8" font-family="Times,serif" font-size="14.00">A: +[Foo load]</text>
</g>
<!-- A: add Foo(B)&#45;&gt;A: +[Foo load] -->
<g id="edge13" class="edge"><title>A: add Foo(B)&#45;&gt;A: +[Foo load]</title>
<path fill="none" stroke="black" d="M240.812,-143.697C240.812,-135.983 240.812,-126.712 240.812,-118.112"/>
<polygon fill="black" stroke="black" points="244.312,-118.104 240.812,-108.104 237.312,-118.104 244.312,-118.104"/>
</g>
<!-- A: +[Foo(B) load] -->
<g id="node14" class="node"><title>A: +[Foo(B) load]</title>
<polygon fill="none" stroke="black" points="300.084,-36 181.54,-36 181.54,-0 300.084,-0 300.084,-36"/>
<text text-anchor="middle" x="240.812" y="-13.8" font-family="Times,serif" font-size="14.00">A: +[Foo(B) load]</text>
</g>
<!-- A: +[Foo load]&#45;&gt;A: +[Foo(B) load] -->
<g id="edge14" class="edge"><title>A: +[Foo load]&#45;&gt;A: +[Foo(B) load]</title>
<path fill="none" stroke="black" d="M240.812,-71.6966C240.812,-63.9827 240.812,-54.7125 240.812,-46.1124"/>
<polygon fill="black" stroke="black" points="244.312,-46.1043 240.812,-36.1043 237.312,-46.1044 244.312,-46.1043"/>
</g>
</g>
</svg>
