<svg xmlns="http://www.w3.org/2000/svg" xmlns:xlink="http://www.w3.org/1999/xlink" width="535pt" height="924" viewBox="0 0 534.56 693"><g id="graph0" class="graph" transform="scale(1 1) rotate(0) translate(4 689)"><title>load_queue</title><polygon fill="#fff" stroke="none" points="-4 4 -4 -689 530.561 -689 530.561 4 -4 4"/><g id="node1" class="node"><title>queue of loadclasses and loadcategories</title><polygon fill="none" stroke="#00f" stroke-width="3" points="366.632 -685 127.368 -685 127.368 -649 366.632 -649 366.632 -685"/><text x="247" y="-662.8" font-family="Times,serif" font-size="14" text-anchor="middle">queue of loadclasses and loadcategories</text></g><g id="node2" class="node"><title>next loadclass</title><polygon fill="none" stroke="#000" stroke-width="3" points="358.421 -599 263.579 -599 263.579 -563 358.421 -563 358.421 -599"/><text x="311" y="-576.8" font-family="Times,serif" font-size="14" text-anchor="middle">next loadclass</text></g><g id="edge1" class="edge"><title>queue of loadclasses and loadcategories-&gt;next loadclass</title><path fill="none" stroke="#000" d="M266.718,-648.758C272.318,-643.368 278.194,-637.201 283,-631 288.462,-623.953 293.579,-615.724 297.906,-608.044"/><polygon fill="#000" stroke="#000" points="301.083 -609.526 302.762 -599.065 294.926 -606.196 301.083 -609.526"/><text x="324.269" y="-619.8" font-family="Times,serif" font-size="14" text-anchor="middle">has classes</text></g><g id="node3" class="node"><title>next loadcategory</title><polygon fill="none" stroke="#000" stroke-width="3" points="242.9 -599 127.1 -599 127.1 -563 242.9 -563 242.9 -599"/><text x="185" y="-576.8" font-family="Times,serif" font-size="14" text-anchor="middle">next loadcategory</text></g><g id="edge2" class="edge"><title>queue of loadclasses and loadcategories-&gt;next loadcategory</title><path fill="none" stroke="#000" d="M218.456,-648.831C211.857,-643.77 205.376,-637.752 200.593,-631 195.928,-624.415 192.614,-616.372 190.277,-608.72"/><polygon fill="#000" stroke="#000" points="193.662 -607.828 187.738 -599.044 186.891 -609.604 193.662 -607.828"/><text x="242.204" y="-619.8" font-family="Times,serif" font-size="14" text-anchor="middle">has categories</text></g><g id="node4" class="node"><title>superclass missing</title><polygon fill="none" stroke="#000" points="384.104 -440 263.896 -440 263.896 -404 384.104 -404 384.104 -440"/><text x="324" y="-417.8" font-family="Times,serif" font-size="14" text-anchor="middle">superclass missing</text></g><g id="edge3" class="edge"><title>next loadclass-&gt;superclass missing</title><path fill="none" stroke="#000" d="M312.416,-562.899C314.663,-535.766 319.064,-482.614 321.747,-450.207"/><polygon fill="#000" stroke="#000" points="325.249 -450.334 322.586 -440.08 318.272 -449.757 325.249 -450.334"/></g><g id="node11" class="node"><title>.superclass missing</title><polygon fill="none" stroke="#000" points="221.104 -526 96.896 -526 96.896 -490 221.104 -490 221.104 -526"/><text x="159" y="-503.8" font-family="Times,serif" font-size="14" text-anchor="middle">.superclass missing</text></g><g id="edge13" class="edge"><title>next loadcategory-&gt;.superclass missing</title><path fill="none" stroke="#000" d="M178.706,-562.813C175.704,-554.615 172.045,-544.623 168.699,-535.485"/><polygon fill="#000" stroke="#000" points="171.961 -534.215 165.236 -526.029 165.388 -536.623 171.961 -534.215"/></g><g id="node5" class="node"><title>add to waitqueue for classid</title><polygon fill="none" stroke="#00f" stroke-width="3" points="212.563 -36 39.438 -36 39.438 0 212.563 0 212.563 -36"/><text x="126" y="-13.8" font-family="Times,serif" font-size="14" text-anchor="middle">add to waitqueue for classid</text></g><g id="edge4" class="edge"><title>superclass missing-&gt;add to waitqueue for classid</title><path fill="none" stroke="#000" d="M324,-403.947C324,-386.975 324,-360.188 324,-337 324,-337 324,-337 324,-90 324,-66.2489 272.88,-48.3035 222.589,-36.3959"/><polygon fill="#000" stroke="#000" points="223.087 -32.919 212.558 -34.095 221.522 -39.742 223.087 -32.919"/><text x="337.224" y="-202.8" font-family="Times,serif" font-size="14" text-anchor="middle">YES</text></g><g id="node6" class="node"><title>protocolclass missing</title><polygon fill="none" stroke="#000" points="488.435 -354 351.565 -354 351.565 -318 488.435 -318 488.435 -354"/><text x="420" y="-331.8" font-family="Times,serif" font-size="14" text-anchor="middle">protocolclass missing</text></g><g id="edge5" class="edge"><title>superclass missing-&gt;protocolclass missing</title><path fill="none" stroke="#000" d="M343.891,-403.595C358.015,-391.237 377.152,-374.492 392.703,-360.885"/><polygon fill="#000" stroke="#000" points="395.242 -363.314 400.463 -354.095 390.632 -358.046 395.242 -363.314"/><text x="388.11" y="-374.8" font-family="Times,serif" font-size="14" text-anchor="middle">NO</text></g><g id="edge12" class="edge"><title>add to waitqueue for classid-&gt;queue of loadclasses and loadcategories</title><path fill="none" stroke="#000" d="M47.2762,-36.0012C21.8067,-46.4795 0,-63.2591 0,-90 0,-582 0,-582 0,-582 0,-611.773 65.1402,-633.12 128.516,-646.843"/><polygon fill="#000" stroke="#000" points="128.156 -650.343 138.662 -648.98 129.598 -643.494 128.156 -650.343"/></g><g id="edge6" class="edge"><title>protocolclass missing-&gt;add to waitqueue for classid</title><path fill="none" stroke="#000" d="M402.231,-317.758C387.86,-301.899 370,-276.966 370,-251 370,-251 370,-251 370,-90 370,-68.5927 356.747,-64.3361 338,-54 318.028,-42.988 268.767,-34.5105 222.755,-28.6588"/><polygon fill="#000" stroke="#000" points="223.046 -25.168 212.691 -27.413 222.186 -32.115 223.046 -25.168"/><text x="383.224" y="-159.8" font-family="Times,serif" font-size="14" text-anchor="middle">YES</text></g><g id="node7" class="node"><title>setup class</title><polygon fill="none" stroke="#000" points="477.266 -268 400.734 -268 400.734 -232 477.266 -232 477.266 -268"/><text x="439" y="-245.8" font-family="Times,serif" font-size="14" text-anchor="middle">setup class</text></g><g id="edge7" class="edge"><title>protocolclass missing-&gt;setup class</title><path fill="none" stroke="#000" d="M423.937,-317.595C426.527,-306.144 429.969,-290.926 432.909,-277.929"/><polygon fill="#000" stroke="#000" points="436.341 -278.621 435.133 -268.095 429.513 -277.077 436.341 -278.621"/><text x="441.11" y="-288.8" font-family="Times,serif" font-size="14" text-anchor="middle">NO</text></g><g id="node8" class="node"><title>add class</title><polygon fill="none" stroke="#000" points="481.428 -182 414.572 -182 414.572 -146 481.428 -146 481.428 -182"/><text x="448" y="-159.8" font-family="Times,serif" font-size="14" text-anchor="middle">add class</text></g><g id="edge8" class="edge"><title>setup class-&gt;add class</title><path fill="none" stroke="#000" d="M440.865,-231.595C442.08,-220.257 443.69,-205.227 445.073,-192.315"/><polygon fill="#000" stroke="#000" points="448.583 -192.411 446.168 -182.095 441.623 -191.665 448.583 -192.411"/></g><g id="node9" class="node"><title>call +load</title><polygon fill="none" stroke="#000" points="483.707 -109 412.293 -109 412.293 -73 483.707 -73 483.707 -109"/><text x="448" y="-86.8" font-family="Times,serif" font-size="14" text-anchor="middle">call +load</text></g><g id="edge9" class="edge"><title>add class-&gt;call +load</title><path fill="none" stroke="#000" d="M448,-145.813C448,-137.789 448,-128.047 448,-119.069"/><polygon fill="#000" stroke="#000" points="451.5 -119.029 448 -109.029 444.5 -119.029 451.5 -119.029"/></g><g id="node10" class="node"><title>run waitqueue for classid</title><polygon fill="none" stroke="#00f" stroke-width="3" points="526.621 -36 369.379 -36 369.379 0 526.621 0 526.621 -36"/><text x="448" y="-13.8" font-family="Times,serif" font-size="14" text-anchor="middle">run waitqueue for classid</text></g><g id="edge10" class="edge"><title>call +load-&gt;run waitqueue for classid</title><path fill="none" stroke="#000" d="M448,-72.8129C448,-64.7895 448,-55.0475 448,-46.0691"/><polygon fill="#000" stroke="#000" points="451.5 -46.029 448 -36.029 444.5 -46.029 451.5 -46.029"/></g><g id="edge11" class="edge"><title>run waitqueue for classid-&gt;queue of loadclasses and loadcategories</title><path fill="none" stroke="#000" d="M479.214,-36.1481C497.09,-48.474 516,-66.9584 516,-90 516,-582 516,-582 516,-582 516,-614.001 445.758,-635.231 377.062,-648.342"/><polygon fill="#000" stroke="#000" points="376.14 -644.953 366.946 -650.218 377.416 -651.836 376.14 -644.953"/></g><g id="edge14" class="edge"><title>.superclass missing-&gt;add to waitqueue for classid</title><path fill="none" stroke="#000" d="M105.809,-489.975C76.5001,-476.914 46,-455.511 46,-423 46,-423 46,-423 46,-90 46,-69.2539 61.2357,-53.0934 78.4093,-41.4672"/><polygon fill="#000" stroke="#000" points="80.322 -44.399 86.937 -36.124 76.605 -38.467 80.322 -44.399"/><text x="59.224" y="-245.8" font-family="Times,serif" font-size="14" text-anchor="middle">YES</text></g><g id="node12" class="node"><title>.protocolclass missing</title><polygon fill="none" stroke="#000" points="229.435 -440 88.565 -440 88.565 -404 229.435 -404 229.435 -440"/><text x="159" y="-417.8" font-family="Times,serif" font-size="14" text-anchor="middle">.protocolclass missing</text></g><g id="edge15" class="edge"><title>.superclass missing-&gt;.protocolclass missing</title><path fill="none" stroke="#000" d="M159,-489.595C159,-478.257 159,-463.227 159,-450.315"/><polygon fill="#000" stroke="#000" points="162.5 -450.095 159 -440.095 155.5 -450.095 162.5 -450.095"/><text x="169.11" y="-460.8" font-family="Times,serif" font-size="14" text-anchor="middle">NO</text></g><g id="edge16" class="edge"><title>.protocolclass missing-&gt;add to waitqueue for classid</title><path fill="none" stroke="#000" d="M138.952,-403.905C126.038,-391.53 110.338,-373.592 103,-354 80.2352,-293.221 100,-272.903 100,-208 100,-208 100,-208 100,-90 100,-74.6231 105.444,-58.4525 111.35,-45.4343"/><polygon fill="#000" stroke="#000" points="114.635 -46.681 115.873 -36.159 108.344 -43.613 114.635 -46.681"/><text x="113.224" y="-202.8" font-family="Times,serif" font-size="14" text-anchor="middle">YES</text></g><g id="node13" class="node"><title>.categoryDependency missing</title><polygon fill="none" stroke="#000" points="296.225 -354 111.775 -354 111.775 -318 296.225 -318 296.225 -354"/><text x="204" y="-331.8" font-family="Times,serif" font-size="14" text-anchor="middle">.categoryDependency missing</text></g><g id="edge17" class="edge"><title>.protocolclass missing-&gt;.categoryDependency missing</title><path fill="none" stroke="#000" d="M168.324,-403.595C174.58,-391.917 182.935,-376.322 189.986,-363.159"/><polygon fill="#000" stroke="#000" points="193.205 -364.563 194.842 -354.095 187.034 -361.257 193.205 -364.563"/><text x="195.11" y="-374.8" font-family="Times,serif" font-size="14" text-anchor="middle">NO</text></g><g id="edge18" class="edge"><title>.categoryDependency missing-&gt;add to waitqueue for classid</title><path fill="none" stroke="#000" d="M185.876,-317.825C171.217,-302.009 153,-277.103 153,-251 153,-251 153,-251 153,-90 153,-74.552 147.347,-58.3754 141.214,-45.3715"/><polygon fill="#000" stroke="#000" points="144.161 -43.445 136.516 -36.11 137.919 -46.612 144.161 -43.445"/><text x="166.224" y="-159.8" font-family="Times,serif" font-size="14" text-anchor="middle">YES</text></g><g id="node14" class="node"><title>setup category</title><polygon fill="none" stroke="#000" points="292.745 -268 195.255 -268 195.255 -232 292.745 -232 292.745 -268"/><text x="244" y="-245.8" font-family="Times,serif" font-size="14" text-anchor="middle">setup category</text></g><g id="edge19" class="edge"><title>.categoryDependency missing-&gt;setup category</title><path fill="none" stroke="#000" d="M212.288,-317.595C217.849,-305.917 225.275,-290.322 231.543,-277.159"/><polygon fill="#000" stroke="#000" points="234.72 -278.629 235.859 -268.095 228.4 -275.619 234.72 -278.629"/><text x="237.11" y="-288.8" font-family="Times,serif" font-size="14" text-anchor="middle">NO</text></g><g id="node15" class="node"><title>add category</title><polygon fill="none" stroke="#000" points="293.907 -182 206.093 -182 206.093 -146 293.907 -146 293.907 -182"/><text x="250" y="-159.8" font-family="Times,serif" font-size="14" text-anchor="middle">add category</text></g><g id="edge20" class="edge"><title>setup category-&gt;add category</title><path fill="none" stroke="#000" d="M245.243,-231.595C246.053,-220.257 247.127,-205.227 248.049,-192.315"/><polygon fill="#000" stroke="#000" points="251.557 -192.319 248.779 -182.095 244.575 -191.82 251.557 -192.319"/></g><g id="node16" class="node"><title>.call +load</title><polygon fill="none" stroke="#000" points="293.706 -109 218.294 -109 218.294 -73 293.706 -73 293.706 -109"/><text x="256" y="-86.8" font-family="Times,serif" font-size="14" text-anchor="middle">.call +load</text></g><g id="edge21" class="edge"><title>add category-&gt;.call +load</title><path fill="none" stroke="#000" d="M251.452,-145.813C252.13,-137.789 252.954,-128.047 253.712,-119.069"/><polygon fill="#000" stroke="#000" points="257.206 -119.288 254.561 -109.029 250.231 -118.699 257.206 -119.288"/></g><g id="edge22" class="edge"><title>.call +load-&gt;run waitqueue for classid</title><path fill="none" stroke="#000" d="M293.933,-75.9727C322.061,-65.5713 360.841,-51.2306 392.457,-39.5394"/><polygon fill="#000" stroke="#000" points="393.854 -42.755 402.019 -36.003 391.426 -36.189 393.854 -42.755"/></g></g></svg>